G04*
G04 #@! TF.GenerationSoftware,Altium Limited,Altium Designer,19.1.6 (110)*
G04*
G04 Layer_Color=255*
%FSLAX44Y44*%
%MOMM*%
G71*
G01*
G75*
G04:AMPARAMS|DCode=21|XSize=1mm|YSize=0.9mm|CornerRadius=0.1125mm|HoleSize=0mm|Usage=FLASHONLY|Rotation=90.000|XOffset=0mm|YOffset=0mm|HoleType=Round|Shape=RoundedRectangle|*
%AMROUNDEDRECTD21*
21,1,1.0000,0.6750,0,0,90.0*
21,1,0.7750,0.9000,0,0,90.0*
1,1,0.2250,0.3375,0.3875*
1,1,0.2250,0.3375,-0.3875*
1,1,0.2250,-0.3375,-0.3875*
1,1,0.2250,-0.3375,0.3875*
%
%ADD21ROUNDEDRECTD21*%
G04:AMPARAMS|DCode=22|XSize=0.5mm|YSize=0.6mm|CornerRadius=0.05mm|HoleSize=0mm|Usage=FLASHONLY|Rotation=0.000|XOffset=0mm|YOffset=0mm|HoleType=Round|Shape=RoundedRectangle|*
%AMROUNDEDRECTD22*
21,1,0.5000,0.5000,0,0,0.0*
21,1,0.4000,0.6000,0,0,0.0*
1,1,0.1000,0.2000,-0.2500*
1,1,0.1000,-0.2000,-0.2500*
1,1,0.1000,-0.2000,0.2500*
1,1,0.1000,0.2000,0.2500*
%
%ADD22ROUNDEDRECTD22*%
G04:AMPARAMS|DCode=23|XSize=0.5mm|YSize=0.6mm|CornerRadius=0.05mm|HoleSize=0mm|Usage=FLASHONLY|Rotation=90.000|XOffset=0mm|YOffset=0mm|HoleType=Round|Shape=RoundedRectangle|*
%AMROUNDEDRECTD23*
21,1,0.5000,0.5000,0,0,90.0*
21,1,0.4000,0.6000,0,0,90.0*
1,1,0.1000,0.2500,0.2000*
1,1,0.1000,0.2500,-0.2000*
1,1,0.1000,-0.2500,-0.2000*
1,1,0.1000,-0.2500,0.2000*
%
%ADD23ROUNDEDRECTD23*%
G04:AMPARAMS|DCode=24|XSize=0.6mm|YSize=0.6mm|CornerRadius=0.06mm|HoleSize=0mm|Usage=FLASHONLY|Rotation=270.000|XOffset=0mm|YOffset=0mm|HoleType=Round|Shape=RoundedRectangle|*
%AMROUNDEDRECTD24*
21,1,0.6000,0.4800,0,0,270.0*
21,1,0.4800,0.6000,0,0,270.0*
1,1,0.1200,-0.2400,-0.2400*
1,1,0.1200,-0.2400,0.2400*
1,1,0.1200,0.2400,0.2400*
1,1,0.1200,0.2400,-0.2400*
%
%ADD24ROUNDEDRECTD24*%
G04:AMPARAMS|DCode=25|XSize=0.6mm|YSize=0.6mm|CornerRadius=0.06mm|HoleSize=0mm|Usage=FLASHONLY|Rotation=0.000|XOffset=0mm|YOffset=0mm|HoleType=Round|Shape=RoundedRectangle|*
%AMROUNDEDRECTD25*
21,1,0.6000,0.4800,0,0,0.0*
21,1,0.4800,0.6000,0,0,0.0*
1,1,0.1200,0.2400,-0.2400*
1,1,0.1200,-0.2400,-0.2400*
1,1,0.1200,-0.2400,0.2400*
1,1,0.1200,0.2400,0.2400*
%
%ADD25ROUNDEDRECTD25*%
G04:AMPARAMS|DCode=26|XSize=0.5mm|YSize=0.6mm|CornerRadius=0.05mm|HoleSize=0mm|Usage=FLASHONLY|Rotation=225.000|XOffset=0mm|YOffset=0mm|HoleType=Round|Shape=RoundedRectangle|*
%AMROUNDEDRECTD26*
21,1,0.5000,0.5000,0,0,225.0*
21,1,0.4000,0.6000,0,0,225.0*
1,1,0.1000,-0.3182,0.0354*
1,1,0.1000,-0.0354,0.3182*
1,1,0.1000,0.3182,-0.0354*
1,1,0.1000,0.0354,-0.3182*
%
%ADD26ROUNDEDRECTD26*%
G04:AMPARAMS|DCode=27|XSize=1mm|YSize=0.9mm|CornerRadius=0.1125mm|HoleSize=0mm|Usage=FLASHONLY|Rotation=0.000|XOffset=0mm|YOffset=0mm|HoleType=Round|Shape=RoundedRectangle|*
%AMROUNDEDRECTD27*
21,1,1.0000,0.6750,0,0,0.0*
21,1,0.7750,0.9000,0,0,0.0*
1,1,0.2250,0.3875,-0.3375*
1,1,0.2250,-0.3875,-0.3375*
1,1,0.2250,-0.3875,0.3375*
1,1,0.2250,0.3875,0.3375*
%
%ADD27ROUNDEDRECTD27*%
G04:AMPARAMS|DCode=28|XSize=1.3mm|YSize=0.8mm|CornerRadius=0.1mm|HoleSize=0mm|Usage=FLASHONLY|Rotation=180.000|XOffset=0mm|YOffset=0mm|HoleType=Round|Shape=RoundedRectangle|*
%AMROUNDEDRECTD28*
21,1,1.3000,0.6000,0,0,180.0*
21,1,1.1000,0.8000,0,0,180.0*
1,1,0.2000,-0.5500,0.3000*
1,1,0.2000,0.5500,0.3000*
1,1,0.2000,0.5500,-0.3000*
1,1,0.2000,-0.5500,-0.3000*
%
%ADD28ROUNDEDRECTD28*%
%ADD29C,0.3500*%
%ADD30R,0.2000X0.2000*%
G04:AMPARAMS|DCode=31|XSize=4.2mm|YSize=4.2mm|CornerRadius=1.05mm|HoleSize=0mm|Usage=FLASHONLY|Rotation=90.000|XOffset=0mm|YOffset=0mm|HoleType=Round|Shape=RoundedRectangle|*
%AMROUNDEDRECTD31*
21,1,4.2000,2.1000,0,0,90.0*
21,1,2.1000,4.2000,0,0,90.0*
1,1,2.1000,1.0500,1.0500*
1,1,2.1000,1.0500,-1.0500*
1,1,2.1000,-1.0500,-1.0500*
1,1,2.1000,-1.0500,1.0500*
%
%ADD31ROUNDEDRECTD31*%
G04:AMPARAMS|DCode=32|XSize=4mm|YSize=4mm|CornerRadius=1mm|HoleSize=0mm|Usage=FLASHONLY|Rotation=90.000|XOffset=0mm|YOffset=0mm|HoleType=Round|Shape=RoundedRectangle|*
%AMROUNDEDRECTD32*
21,1,4.0000,2.0000,0,0,90.0*
21,1,2.0000,4.0000,0,0,90.0*
1,1,2.0000,1.0000,1.0000*
1,1,2.0000,1.0000,-1.0000*
1,1,2.0000,-1.0000,-1.0000*
1,1,2.0000,-1.0000,1.0000*
%
%ADD32ROUNDEDRECTD32*%
%ADD33R,1.0000X2.7500*%
G04:AMPARAMS|DCode=34|XSize=1.3mm|YSize=0.8mm|CornerRadius=0.1mm|HoleSize=0mm|Usage=FLASHONLY|Rotation=270.000|XOffset=0mm|YOffset=0mm|HoleType=Round|Shape=RoundedRectangle|*
%AMROUNDEDRECTD34*
21,1,1.3000,0.6000,0,0,270.0*
21,1,1.1000,0.8000,0,0,270.0*
1,1,0.2000,-0.3000,-0.5500*
1,1,0.2000,-0.3000,0.5500*
1,1,0.2000,0.3000,0.5500*
1,1,0.2000,0.3000,-0.5500*
%
%ADD34ROUNDEDRECTD34*%
%ADD35R,1.6500X0.9000*%
%ADD36R,1.6500X0.7600*%
%ADD37R,3.5000X1.9000*%
%ADD38R,1.0000X1.5500*%
%ADD39R,1.6000X1.2000*%
%ADD40R,1.2000X1.5500*%
%ADD41R,1.2000X1.2000*%
%ADD42R,2.1500X1.2000*%
%ADD43R,1.5500X1.0000*%
%ADD44R,1.2000X1.6000*%
%ADD45R,1.5500X1.2000*%
%ADD46R,1.2000X1.2000*%
%ADD47R,1.2000X2.1500*%
G04:AMPARAMS|DCode=48|XSize=1.4mm|YSize=1.2mm|CornerRadius=0.15mm|HoleSize=0mm|Usage=FLASHONLY|Rotation=270.000|XOffset=0mm|YOffset=0mm|HoleType=Round|Shape=RoundedRectangle|*
%AMROUNDEDRECTD48*
21,1,1.4000,0.9000,0,0,270.0*
21,1,1.1000,1.2000,0,0,270.0*
1,1,0.3000,-0.4500,-0.5500*
1,1,0.3000,-0.4500,0.5500*
1,1,0.3000,0.4500,0.5500*
1,1,0.3000,0.4500,-0.5500*
%
%ADD48ROUNDEDRECTD48*%
G04:AMPARAMS|DCode=49|XSize=0.5mm|YSize=0.6mm|CornerRadius=0.05mm|HoleSize=0mm|Usage=FLASHONLY|Rotation=135.000|XOffset=0mm|YOffset=0mm|HoleType=Round|Shape=RoundedRectangle|*
%AMROUNDEDRECTD49*
21,1,0.5000,0.5000,0,0,135.0*
21,1,0.4000,0.6000,0,0,135.0*
1,1,0.1000,0.0354,0.3182*
1,1,0.1000,0.3182,0.0354*
1,1,0.1000,-0.0354,-0.3182*
1,1,0.1000,-0.3182,-0.0354*
%
%ADD49ROUNDEDRECTD49*%
G04:AMPARAMS|DCode=50|XSize=0.9mm|YSize=1.65mm|CornerRadius=0mm|HoleSize=0mm|Usage=FLASHONLY|Rotation=315.000|XOffset=0mm|YOffset=0mm|HoleType=Round|Shape=Rectangle|*
%AMROTATEDRECTD50*
4,1,4,-0.9016,-0.2652,0.2652,0.9016,0.9016,0.2652,-0.2652,-0.9016,-0.9016,-0.2652,0.0*
%
%ADD50ROTATEDRECTD50*%

G04:AMPARAMS|DCode=51|XSize=0.76mm|YSize=1.65mm|CornerRadius=0mm|HoleSize=0mm|Usage=FLASHONLY|Rotation=315.000|XOffset=0mm|YOffset=0mm|HoleType=Round|Shape=Rectangle|*
%AMROTATEDRECTD51*
4,1,4,-0.8521,-0.3147,0.3147,0.8521,0.8521,0.3147,-0.3147,-0.8521,-0.8521,-0.3147,0.0*
%
%ADD51ROTATEDRECTD51*%

G04:AMPARAMS|DCode=52|XSize=0.6mm|YSize=0.6mm|CornerRadius=0.06mm|HoleSize=0mm|Usage=FLASHONLY|Rotation=225.000|XOffset=0mm|YOffset=0mm|HoleType=Round|Shape=RoundedRectangle|*
%AMROUNDEDRECTD52*
21,1,0.6000,0.4800,0,0,225.0*
21,1,0.4800,0.6000,0,0,225.0*
1,1,0.1200,-0.3394,0.0000*
1,1,0.1200,0.0000,0.3394*
1,1,0.1200,0.3394,0.0000*
1,1,0.1200,0.0000,-0.3394*
%
%ADD52ROUNDEDRECTD52*%
G04:AMPARAMS|DCode=53|XSize=0.9mm|YSize=0.9mm|CornerRadius=0.1125mm|HoleSize=0mm|Usage=FLASHONLY|Rotation=90.000|XOffset=0mm|YOffset=0mm|HoleType=Round|Shape=RoundedRectangle|*
%AMROUNDEDRECTD53*
21,1,0.9000,0.6750,0,0,90.0*
21,1,0.6750,0.9000,0,0,90.0*
1,1,0.2250,0.3375,0.3375*
1,1,0.2250,0.3375,-0.3375*
1,1,0.2250,-0.3375,-0.3375*
1,1,0.2250,-0.3375,0.3375*
%
%ADD53ROUNDEDRECTD53*%
%ADD54R,0.7600X1.6500*%
%ADD55R,0.9000X1.6500*%
G04:AMPARAMS|DCode=56|XSize=0.6mm|YSize=1mm|CornerRadius=0.075mm|HoleSize=0mm|Usage=FLASHONLY|Rotation=0.000|XOffset=0mm|YOffset=0mm|HoleType=Round|Shape=RoundedRectangle|*
%AMROUNDEDRECTD56*
21,1,0.6000,0.8500,0,0,0.0*
21,1,0.4500,1.0000,0,0,0.0*
1,1,0.1500,0.2250,-0.4250*
1,1,0.1500,-0.2250,-0.4250*
1,1,0.1500,-0.2250,0.4250*
1,1,0.1500,0.2250,0.4250*
%
%ADD56ROUNDEDRECTD56*%
%ADD57R,0.4000X1.0000*%
G04:AMPARAMS|DCode=58|XSize=0.6mm|YSize=1mm|CornerRadius=0.075mm|HoleSize=0mm|Usage=FLASHONLY|Rotation=90.000|XOffset=0mm|YOffset=0mm|HoleType=Round|Shape=RoundedRectangle|*
%AMROUNDEDRECTD58*
21,1,0.6000,0.8500,0,0,90.0*
21,1,0.4500,1.0000,0,0,90.0*
1,1,0.1500,0.4250,0.2250*
1,1,0.1500,0.4250,-0.2250*
1,1,0.1500,-0.4250,-0.2250*
1,1,0.1500,-0.4250,0.2250*
%
%ADD58ROUNDEDRECTD58*%
%ADD59C,1.6000*%
%ADD60R,2.0000X0.5000*%
%ADD61R,0.3100X0.3000*%
G04:AMPARAMS|DCode=62|XSize=1mm|YSize=0.9mm|CornerRadius=0.1125mm|HoleSize=0mm|Usage=FLASHONLY|Rotation=315.000|XOffset=0mm|YOffset=0mm|HoleType=Round|Shape=RoundedRectangle|*
%AMROUNDEDRECTD62*
21,1,1.0000,0.6750,0,0,315.0*
21,1,0.7750,0.9000,0,0,315.0*
1,1,0.2250,0.0354,-0.5127*
1,1,0.2250,-0.5127,0.0354*
1,1,0.2250,-0.0354,0.5127*
1,1,0.2250,0.5127,-0.0354*
%
%ADD62ROUNDEDRECTD62*%
%ADD63R,0.4000X0.8000*%
%ADD64R,0.8000X0.4000*%
%ADD65R,3.7000X3.7000*%
G04:AMPARAMS|DCode=66|XSize=1.5mm|YSize=0.71mm|CornerRadius=0.1775mm|HoleSize=0mm|Usage=FLASHONLY|Rotation=180.000|XOffset=0mm|YOffset=0mm|HoleType=Round|Shape=RoundedRectangle|*
%AMROUNDEDRECTD66*
21,1,1.5000,0.3550,0,0,180.0*
21,1,1.1450,0.7100,0,0,180.0*
1,1,0.3550,-0.5725,0.1775*
1,1,0.3550,0.5725,0.1775*
1,1,0.3550,0.5725,-0.1775*
1,1,0.3550,-0.5725,-0.1775*
%
%ADD66ROUNDEDRECTD66*%
G04:AMPARAMS|DCode=67|XSize=3.25mm|YSize=1.5mm|CornerRadius=0.375mm|HoleSize=0mm|Usage=FLASHONLY|Rotation=180.000|XOffset=0mm|YOffset=0mm|HoleType=Round|Shape=RoundedRectangle|*
%AMROUNDEDRECTD67*
21,1,3.2500,0.7500,0,0,180.0*
21,1,2.5000,1.5000,0,0,180.0*
1,1,0.7500,-1.2500,0.3750*
1,1,0.7500,1.2500,0.3750*
1,1,0.7500,1.2500,-0.3750*
1,1,0.7500,-1.2500,-0.3750*
%
%ADD67ROUNDEDRECTD67*%
%ADD68R,0.3500X0.4500*%
%ADD69R,0.4500X0.3500*%
%ADD70R,0.3000X0.3100*%
%ADD71R,0.6000X0.9000*%
%ADD72R,1.5000X0.7500*%
%ADD73R,1.6000X0.7112*%
%ADD74R,2.0000X0.9144*%
G04:AMPARAMS|DCode=75|XSize=2mm|YSize=3.4mm|CornerRadius=0mm|HoleSize=0mm|Usage=FLASHONLY|Rotation=270.000|XOffset=0mm|YOffset=0mm|HoleType=Round|Shape=Octagon|*
%AMOCTAGOND75*
4,1,8,1.7000,0.5000,1.7000,-0.5000,1.2000,-1.0000,-1.2000,-1.0000,-1.7000,-0.5000,-1.7000,0.5000,-1.2000,1.0000,1.2000,1.0000,1.7000,0.5000,0.0*
%
%ADD75OCTAGOND75*%

%ADD76R,0.7000X0.3000*%
%ADD77R,0.7000X1.6000*%
%ADD78R,0.7112X1.6000*%
%ADD79R,0.9144X2.0000*%
G04:AMPARAMS|DCode=80|XSize=2mm|YSize=3.4mm|CornerRadius=0mm|HoleSize=0mm|Usage=FLASHONLY|Rotation=0.000|XOffset=0mm|YOffset=0mm|HoleType=Round|Shape=Octagon|*
%AMOCTAGOND80*
4,1,8,-0.5000,1.7000,0.5000,1.7000,1.0000,1.2000,1.0000,-1.2000,0.5000,-1.7000,-0.5000,-1.7000,-1.0000,-1.2000,-1.0000,1.2000,-0.5000,1.7000,0.0*
%
%ADD80OCTAGOND80*%

G04:AMPARAMS|DCode=81|XSize=1.3mm|YSize=0.8mm|CornerRadius=0.1mm|HoleSize=0mm|Usage=FLASHONLY|Rotation=225.000|XOffset=0mm|YOffset=0mm|HoleType=Round|Shape=RoundedRectangle|*
%AMROUNDEDRECTD81*
21,1,1.3000,0.6000,0,0,225.0*
21,1,1.1000,0.8000,0,0,225.0*
1,1,0.2000,-0.6010,-0.1768*
1,1,0.2000,0.1768,0.6010*
1,1,0.2000,0.6010,0.1768*
1,1,0.2000,-0.1768,-0.6010*
%
%ADD81ROUNDEDRECTD81*%
G04:AMPARAMS|DCode=82|XSize=1.8mm|YSize=1.15mm|CornerRadius=0.1438mm|HoleSize=0mm|Usage=FLASHONLY|Rotation=90.000|XOffset=0mm|YOffset=0mm|HoleType=Round|Shape=RoundedRectangle|*
%AMROUNDEDRECTD82*
21,1,1.8000,0.8625,0,0,90.0*
21,1,1.5125,1.1500,0,0,90.0*
1,1,0.2875,0.4313,0.7563*
1,1,0.2875,0.4313,-0.7563*
1,1,0.2875,-0.4313,-0.7563*
1,1,0.2875,-0.4313,0.7563*
%
%ADD82ROUNDEDRECTD82*%
G04:AMPARAMS|DCode=83|XSize=1.8mm|YSize=1.15mm|CornerRadius=0.1438mm|HoleSize=0mm|Usage=FLASHONLY|Rotation=180.000|XOffset=0mm|YOffset=0mm|HoleType=Round|Shape=RoundedRectangle|*
%AMROUNDEDRECTD83*
21,1,1.8000,0.8625,0,0,180.0*
21,1,1.5125,1.1500,0,0,180.0*
1,1,0.2875,-0.7563,0.4313*
1,1,0.2875,0.7563,0.4313*
1,1,0.2875,0.7563,-0.4313*
1,1,0.2875,-0.7563,-0.4313*
%
%ADD83ROUNDEDRECTD83*%
G04:AMPARAMS|DCode=84|XSize=1.4mm|YSize=1mm|CornerRadius=0.125mm|HoleSize=0mm|Usage=FLASHONLY|Rotation=270.000|XOffset=0mm|YOffset=0mm|HoleType=Round|Shape=RoundedRectangle|*
%AMROUNDEDRECTD84*
21,1,1.4000,0.7500,0,0,270.0*
21,1,1.1500,1.0000,0,0,270.0*
1,1,0.2500,-0.3750,-0.5750*
1,1,0.2500,-0.3750,0.5750*
1,1,0.2500,0.3750,0.5750*
1,1,0.2500,0.3750,-0.5750*
%
%ADD84ROUNDEDRECTD84*%
G04:AMPARAMS|DCode=85|XSize=1.4mm|YSize=1mm|CornerRadius=0.125mm|HoleSize=0mm|Usage=FLASHONLY|Rotation=0.000|XOffset=0mm|YOffset=0mm|HoleType=Round|Shape=RoundedRectangle|*
%AMROUNDEDRECTD85*
21,1,1.4000,0.7500,0,0,0.0*
21,1,1.1500,1.0000,0,0,0.0*
1,1,0.2500,0.5750,-0.3750*
1,1,0.2500,-0.5750,-0.3750*
1,1,0.2500,-0.5750,0.3750*
1,1,0.2500,0.5750,0.3750*
%
%ADD85ROUNDEDRECTD85*%
%ADD86R,5.0000X4.0000*%
%ADD87R,4.0000X5.0000*%
%ADD88R,0.3000X0.8500*%
%ADD89R,0.8500X0.3000*%
%ADD90R,2.1000X2.1000*%
%ADD91O,0.2400X0.7500*%
%ADD92O,0.7500X0.2400*%
%ADD93R,7.4000X7.4000*%
%ADD94R,0.3500X0.3000*%
%ADD95C,0.5000*%
G04:AMPARAMS|DCode=96|XSize=0.6mm|YSize=0.6mm|CornerRadius=0.06mm|HoleSize=0mm|Usage=FLASHONLY|Rotation=315.000|XOffset=0mm|YOffset=0mm|HoleType=Round|Shape=RoundedRectangle|*
%AMROUNDEDRECTD96*
21,1,0.6000,0.4800,0,0,315.0*
21,1,0.4800,0.6000,0,0,315.0*
1,1,0.1200,0.0000,-0.3394*
1,1,0.1200,-0.3394,0.0000*
1,1,0.1200,0.0000,0.3394*
1,1,0.1200,0.3394,0.0000*
%
%ADD96ROUNDEDRECTD96*%
G04:AMPARAMS|DCode=97|XSize=1mm|YSize=0.9mm|CornerRadius=0.1125mm|HoleSize=0mm|Usage=FLASHONLY|Rotation=225.000|XOffset=0mm|YOffset=0mm|HoleType=Round|Shape=RoundedRectangle|*
%AMROUNDEDRECTD97*
21,1,1.0000,0.6750,0,0,225.0*
21,1,0.7750,0.9000,0,0,225.0*
1,1,0.2250,-0.5127,-0.0354*
1,1,0.2250,0.0354,0.5127*
1,1,0.2250,0.5127,0.0354*
1,1,0.2250,-0.0354,-0.5127*
%
%ADD97ROUNDEDRECTD97*%
G04:AMPARAMS|DCode=98|XSize=0.76mm|YSize=1.65mm|CornerRadius=0mm|HoleSize=0mm|Usage=FLASHONLY|Rotation=225.000|XOffset=0mm|YOffset=0mm|HoleType=Round|Shape=Rectangle|*
%AMROTATEDRECTD98*
4,1,4,-0.3147,0.8521,0.8521,-0.3147,0.3147,-0.8521,-0.8521,0.3147,-0.3147,0.8521,0.0*
%
%ADD98ROTATEDRECTD98*%

G04:AMPARAMS|DCode=99|XSize=0.25mm|YSize=0.475mm|CornerRadius=0.0625mm|HoleSize=0mm|Usage=FLASHONLY|Rotation=0.000|XOffset=0mm|YOffset=0mm|HoleType=Round|Shape=RoundedRectangle|*
%AMROUNDEDRECTD99*
21,1,0.2500,0.3500,0,0,0.0*
21,1,0.1250,0.4750,0,0,0.0*
1,1,0.1250,0.0625,-0.1750*
1,1,0.1250,-0.0625,-0.1750*
1,1,0.1250,-0.0625,0.1750*
1,1,0.1250,0.0625,0.1750*
%
%ADD99ROUNDEDRECTD99*%
G04:AMPARAMS|DCode=100|XSize=0.25mm|YSize=0.475mm|CornerRadius=0.0625mm|HoleSize=0mm|Usage=FLASHONLY|Rotation=270.000|XOffset=0mm|YOffset=0mm|HoleType=Round|Shape=RoundedRectangle|*
%AMROUNDEDRECTD100*
21,1,0.2500,0.3500,0,0,270.0*
21,1,0.1250,0.4750,0,0,270.0*
1,1,0.1250,-0.1750,-0.0625*
1,1,0.1250,-0.1750,0.0625*
1,1,0.1250,0.1750,0.0625*
1,1,0.1250,0.1750,-0.0625*
%
%ADD100ROUNDEDRECTD100*%
%ADD101R,1.1000X1.1000*%
%ADD102R,1.1000X1.1000*%
G04:AMPARAMS|DCode=103|XSize=0.25mm|YSize=1mm|CornerRadius=0.0625mm|HoleSize=0mm|Usage=FLASHONLY|Rotation=0.000|XOffset=0mm|YOffset=0mm|HoleType=Round|Shape=RoundedRectangle|*
%AMROUNDEDRECTD103*
21,1,0.2500,0.8750,0,0,0.0*
21,1,0.1250,1.0000,0,0,0.0*
1,1,0.1250,0.0625,-0.4375*
1,1,0.1250,-0.0625,-0.4375*
1,1,0.1250,-0.0625,0.4375*
1,1,0.1250,0.0625,0.4375*
%
%ADD103ROUNDEDRECTD103*%
G04:AMPARAMS|DCode=104|XSize=0.25mm|YSize=1mm|CornerRadius=0.0625mm|HoleSize=0mm|Usage=FLASHONLY|Rotation=270.000|XOffset=0mm|YOffset=0mm|HoleType=Round|Shape=RoundedRectangle|*
%AMROUNDEDRECTD104*
21,1,0.2500,0.8750,0,0,270.0*
21,1,0.1250,1.0000,0,0,270.0*
1,1,0.1250,-0.4375,-0.0625*
1,1,0.1250,-0.4375,0.0625*
1,1,0.1250,0.4375,0.0625*
1,1,0.1250,0.4375,-0.0625*
%
%ADD104ROUNDEDRECTD104*%
%ADD105R,1.4000X2.5500*%
%ADD106R,0.9000X2.5500*%
%ADD107R,2.5500X1.4000*%
%ADD108R,2.5500X0.9000*%
G04:AMPARAMS|DCode=109|XSize=3.25mm|YSize=1.5mm|CornerRadius=0.375mm|HoleSize=0mm|Usage=FLASHONLY|Rotation=90.000|XOffset=0mm|YOffset=0mm|HoleType=Round|Shape=RoundedRectangle|*
%AMROUNDEDRECTD109*
21,1,3.2500,0.7500,0,0,90.0*
21,1,2.5000,1.5000,0,0,90.0*
1,1,0.7500,0.3750,1.2500*
1,1,0.7500,0.3750,-1.2500*
1,1,0.7500,-0.3750,-1.2500*
1,1,0.7500,-0.3750,1.2500*
%
%ADD109ROUNDEDRECTD109*%
G04:AMPARAMS|DCode=110|XSize=1.5mm|YSize=0.71mm|CornerRadius=0.1775mm|HoleSize=0mm|Usage=FLASHONLY|Rotation=90.000|XOffset=0mm|YOffset=0mm|HoleType=Round|Shape=RoundedRectangle|*
%AMROUNDEDRECTD110*
21,1,1.5000,0.3550,0,0,90.0*
21,1,1.1450,0.7100,0,0,90.0*
1,1,0.3550,0.1775,0.5725*
1,1,0.3550,0.1775,-0.5725*
1,1,0.3550,-0.1775,-0.5725*
1,1,0.3550,-0.1775,0.5725*
%
%ADD110ROUNDEDRECTD110*%
%ADD227C,1.5000*%
%ADD228C,1.0000*%
%ADD229R,3.0000X1.5000*%
%ADD230R,1.5000X3.0000*%
%ADD231R,1.5000X2.0000*%
%ADD232R,2.0000X0.5000*%
%ADD233R,0.5000X3.0000*%
%ADD234R,2.0000X1.5000*%
%ADD235R,0.7000X4.2000*%
%ADD236R,0.7000X3.2000*%
%ADD247C,0.8000*%
G04:AMPARAMS|DCode=248|XSize=1mm|YSize=3.2mm|CornerRadius=0.25mm|HoleSize=0mm|Usage=FLASHONLY|Rotation=270.000|XOffset=0mm|YOffset=0mm|HoleType=Round|Shape=RoundedRectangle|*
%AMROUNDEDRECTD248*
21,1,1.0000,2.7000,0,0,270.0*
21,1,0.5000,3.2000,0,0,270.0*
1,1,0.5000,-1.3500,-0.2500*
1,1,0.5000,-1.3500,0.2500*
1,1,0.5000,1.3500,0.2500*
1,1,0.5000,1.3500,-0.2500*
%
%ADD248ROUNDEDRECTD248*%
%ADD249C,3.0000*%
G04:AMPARAMS|DCode=250|XSize=1.524mm|YSize=1.524mm|CornerRadius=0.1905mm|HoleSize=0mm|Usage=FLASHONLY|Rotation=270.000|XOffset=0mm|YOffset=0mm|HoleType=Round|Shape=RoundedRectangle|*
%AMROUNDEDRECTD250*
21,1,1.5240,1.1430,0,0,270.0*
21,1,1.1430,1.5240,0,0,270.0*
1,1,0.3810,-0.5715,-0.5715*
1,1,0.3810,-0.5715,0.5715*
1,1,0.3810,0.5715,0.5715*
1,1,0.3810,0.5715,-0.5715*
%
%ADD250ROUNDEDRECTD250*%
G04:AMPARAMS|DCode=251|XSize=1.524mm|YSize=1.524mm|CornerRadius=0.1905mm|HoleSize=0mm|Usage=FLASHONLY|Rotation=180.000|XOffset=0mm|YOffset=0mm|HoleType=Round|Shape=RoundedRectangle|*
%AMROUNDEDRECTD251*
21,1,1.5240,1.1430,0,0,180.0*
21,1,1.1430,1.5240,0,0,180.0*
1,1,0.3810,-0.5715,0.5715*
1,1,0.3810,0.5715,0.5715*
1,1,0.3810,0.5715,-0.5715*
1,1,0.3810,-0.5715,-0.5715*
%
%ADD251ROUNDEDRECTD251*%
%ADD252C,0.9000*%
%ADD253C,2.0000*%
%ADD254C,4.0000*%
%ADD255R,2.0000X2.0000*%
%ADD256C,2.2000*%
%ADD257C,5.0000*%
%ADD258R,3.0000X3.0000*%
G04:AMPARAMS|DCode=259|XSize=3.5mm|YSize=3.5mm|CornerRadius=0.875mm|HoleSize=0mm|Usage=FLASHONLY|Rotation=180.000|XOffset=0mm|YOffset=0mm|HoleType=Round|Shape=RoundedRectangle|*
%AMROUNDEDRECTD259*
21,1,3.5000,1.7500,0,0,180.0*
21,1,1.7500,3.5000,0,0,180.0*
1,1,1.7500,-0.8750,0.8750*
1,1,1.7500,0.8750,0.8750*
1,1,1.7500,0.8750,-0.8750*
1,1,1.7500,-0.8750,-0.8750*
%
%ADD259ROUNDEDRECTD259*%
%ADD260C,3.5000*%
D21*
X1303250Y580500D02*
D03*
X1320250D02*
D03*
X251910Y558660D02*
D03*
X268910D02*
D03*
X2042500Y900500D02*
D03*
X2025500D02*
D03*
X1151826Y688360D02*
D03*
X1168826D02*
D03*
X1151826Y654040D02*
D03*
X1168826D02*
D03*
X238410Y490816D02*
D03*
X221410D02*
D03*
X517768Y382007D02*
D03*
X534768D02*
D03*
X1316500Y382500D02*
D03*
X1299500D02*
D03*
X1314750Y975250D02*
D03*
X1297750D02*
D03*
X1314500Y778125D02*
D03*
X1297500D02*
D03*
X1332500Y350500D02*
D03*
X1349500D02*
D03*
X1034904Y646592D02*
D03*
X1017904D02*
D03*
X1034904Y612273D02*
D03*
X1017904D02*
D03*
X1414000Y777250D02*
D03*
X1431000D02*
D03*
X1536750Y682500D02*
D03*
X1553750D02*
D03*
X1414000Y979750D02*
D03*
X1431000D02*
D03*
X1435250Y1014750D02*
D03*
X1418250D02*
D03*
X1536750Y880000D02*
D03*
X1553750D02*
D03*
X1431000Y584750D02*
D03*
X1414000D02*
D03*
X1553750Y485000D02*
D03*
X1536750D02*
D03*
X1536500Y626750D02*
D03*
X1553500D02*
D03*
X1536500Y639750D02*
D03*
X1553500D02*
D03*
X375400Y666815D02*
D03*
X358400D02*
D03*
X375400Y622815D02*
D03*
X358400D02*
D03*
X1414000Y382250D02*
D03*
X1431000D02*
D03*
X1553500Y429250D02*
D03*
X1536500D02*
D03*
X1536750Y287500D02*
D03*
X1553750D02*
D03*
X1536500Y442250D02*
D03*
X1553500D02*
D03*
X1099000Y891000D02*
D03*
X1116000D02*
D03*
D22*
X403750Y684000D02*
D03*
Y674000D02*
D03*
X471071Y684000D02*
D03*
Y674000D02*
D03*
X1871650Y898100D02*
D03*
X1871650Y908100D02*
D03*
X672350Y377198D02*
D03*
Y367198D02*
D03*
X626450Y377198D02*
D03*
Y367198D02*
D03*
X1045090Y514851D02*
D03*
Y504851D02*
D03*
X758535Y771601D02*
D03*
Y781601D02*
D03*
X813260Y697206D02*
D03*
Y687206D02*
D03*
X803260Y687206D02*
D03*
Y697206D02*
D03*
X644900Y461694D02*
D03*
Y451694D02*
D03*
X634900Y461694D02*
D03*
Y451694D02*
D03*
X800935Y771601D02*
D03*
Y781601D02*
D03*
X284660Y702065D02*
D03*
Y712066D02*
D03*
X749500Y855000D02*
D03*
X749500Y865000D02*
D03*
X662475Y931551D02*
D03*
Y941551D02*
D03*
X710975Y840923D02*
D03*
Y830923D02*
D03*
X701091Y949789D02*
D03*
Y939789D02*
D03*
X725475Y831422D02*
D03*
Y821422D02*
D03*
X732091Y949789D02*
D03*
Y939789D02*
D03*
X742091D02*
D03*
Y949789D02*
D03*
X963500Y335293D02*
D03*
Y345293D02*
D03*
X778700Y460194D02*
D03*
Y450194D02*
D03*
X680800Y461694D02*
D03*
Y451694D02*
D03*
X1181925Y666200D02*
D03*
Y676200D02*
D03*
X1150925Y666200D02*
D03*
Y676200D02*
D03*
X1160780Y1036029D02*
D03*
Y1046029D02*
D03*
X1150780Y1036029D02*
D03*
Y1046029D02*
D03*
X185750Y498250D02*
D03*
Y488250D02*
D03*
X550110Y917445D02*
D03*
Y927445D02*
D03*
X580910Y341565D02*
D03*
Y331566D02*
D03*
X262292Y744144D02*
D03*
Y754144D02*
D03*
X946396Y443539D02*
D03*
Y453539D02*
D03*
X205160Y493065D02*
D03*
Y483065D02*
D03*
X498610Y841195D02*
D03*
Y851195D02*
D03*
X218542Y692515D02*
D03*
Y702515D02*
D03*
X2028000Y318750D02*
D03*
Y308750D02*
D03*
X2078500Y295250D02*
D03*
Y305250D02*
D03*
X1852761Y316795D02*
D03*
Y326795D02*
D03*
X1874750Y210750D02*
D03*
Y220750D02*
D03*
X2227500Y323750D02*
D03*
Y333750D02*
D03*
X2177000Y337250D02*
D03*
Y347250D02*
D03*
X1794761Y361795D02*
D03*
Y371795D02*
D03*
X1816750Y265750D02*
D03*
Y255750D02*
D03*
X1805261Y371795D02*
D03*
Y361795D02*
D03*
X1827000Y265750D02*
D03*
Y255750D02*
D03*
X1424250Y229000D02*
D03*
X1424250Y239000D02*
D03*
X1414250Y239000D02*
D03*
Y229000D02*
D03*
X2187355Y547750D02*
D03*
Y537750D02*
D03*
X2237750Y524250D02*
D03*
X2237750Y534250D02*
D03*
X2111895Y459750D02*
D03*
Y469750D02*
D03*
X1472250Y184000D02*
D03*
Y194000D02*
D03*
X1841000Y813000D02*
D03*
Y803000D02*
D03*
X1861000D02*
D03*
Y813000D02*
D03*
X1851000Y803000D02*
D03*
Y813000D02*
D03*
X1819500Y780750D02*
D03*
Y790750D02*
D03*
X1748610Y829150D02*
D03*
Y819150D02*
D03*
X1738360D02*
D03*
Y829150D02*
D03*
X1775360Y808150D02*
D03*
Y798150D02*
D03*
X1765360Y808150D02*
D03*
Y798150D02*
D03*
X1820000Y859500D02*
D03*
X1820000Y869500D02*
D03*
X1627500Y618540D02*
D03*
X1627500Y628540D02*
D03*
X1637500Y618540D02*
D03*
Y628540D02*
D03*
X1121570Y462096D02*
D03*
Y472096D02*
D03*
X1111570Y462096D02*
D03*
Y472096D02*
D03*
X1004804Y624433D02*
D03*
Y634433D02*
D03*
X1035804D02*
D03*
Y624433D02*
D03*
X1431250Y713750D02*
D03*
Y703750D02*
D03*
X1441250Y713750D02*
D03*
Y703750D02*
D03*
X1454000Y825250D02*
D03*
Y815250D02*
D03*
X1550000Y808000D02*
D03*
Y818000D02*
D03*
X1401989Y751760D02*
D03*
Y761760D02*
D03*
X1431250Y911250D02*
D03*
Y901250D02*
D03*
X1441250Y911250D02*
D03*
Y901250D02*
D03*
X1448750Y1002250D02*
D03*
Y1012250D02*
D03*
X1553500Y1000000D02*
D03*
Y1010000D02*
D03*
X1410500Y968000D02*
D03*
Y958000D02*
D03*
X1453750Y627750D02*
D03*
Y617750D02*
D03*
X1431250Y516250D02*
D03*
Y506250D02*
D03*
X1441250Y516250D02*
D03*
Y506250D02*
D03*
X1410500Y573000D02*
D03*
Y563000D02*
D03*
X445025Y464911D02*
D03*
Y474911D02*
D03*
X435025Y464911D02*
D03*
Y474911D02*
D03*
X432410Y676065D02*
D03*
Y666066D02*
D03*
X345750Y639815D02*
D03*
Y649815D02*
D03*
X376750Y649815D02*
D03*
X376750Y639815D02*
D03*
X442410Y676065D02*
D03*
Y666066D02*
D03*
X727200Y451694D02*
D03*
Y461694D02*
D03*
X1431250Y318750D02*
D03*
Y308750D02*
D03*
X1454000Y430250D02*
D03*
Y420250D02*
D03*
X1441250Y318750D02*
D03*
Y308750D02*
D03*
X1402000Y356750D02*
D03*
Y366750D02*
D03*
X688675Y781601D02*
D03*
Y771601D02*
D03*
X646274Y781601D02*
D03*
Y771601D02*
D03*
X737200Y451694D02*
D03*
Y461694D02*
D03*
X2061500Y473250D02*
D03*
Y483250D02*
D03*
X2109744Y788000D02*
D03*
Y778000D02*
D03*
X1158280Y953718D02*
D03*
Y943718D02*
D03*
X1145531Y991969D02*
D03*
Y981969D02*
D03*
Y811841D02*
D03*
Y821841D02*
D03*
X1126030Y848220D02*
D03*
Y838220D02*
D03*
Y793220D02*
D03*
Y783220D02*
D03*
X1158280Y760969D02*
D03*
Y750969D02*
D03*
X1136000Y787750D02*
D03*
Y777750D02*
D03*
X1588335Y309220D02*
D03*
Y319220D02*
D03*
X1644750Y299250D02*
D03*
Y309250D02*
D03*
X1062750Y396500D02*
D03*
Y406500D02*
D03*
X649400Y328699D02*
D03*
Y338699D02*
D03*
X779735Y828801D02*
D03*
Y818801D02*
D03*
X739875Y327946D02*
D03*
Y337946D02*
D03*
X667475Y828801D02*
D03*
Y818801D02*
D03*
X718750Y367199D02*
D03*
Y377198D02*
D03*
X690800Y461694D02*
D03*
Y451694D02*
D03*
X768700Y460194D02*
D03*
Y450194D02*
D03*
X701000Y697206D02*
D03*
Y687206D02*
D03*
X691000D02*
D03*
Y697206D02*
D03*
X747000Y687206D02*
D03*
Y697206D02*
D03*
X757000Y687206D02*
D03*
Y697206D02*
D03*
X634699Y687206D02*
D03*
Y697206D02*
D03*
X644699Y687206D02*
D03*
Y697206D02*
D03*
X458500Y124000D02*
D03*
Y114000D02*
D03*
X761000Y377194D02*
D03*
Y367194D02*
D03*
X854352Y949789D02*
D03*
Y939789D02*
D03*
X844351D02*
D03*
Y949789D02*
D03*
X837735Y821422D02*
D03*
Y831422D02*
D03*
X813352Y939789D02*
D03*
Y949789D02*
D03*
X823235Y831173D02*
D03*
Y841173D02*
D03*
X774735Y941551D02*
D03*
Y931551D02*
D03*
X860985Y865025D02*
D03*
Y855025D02*
D03*
D23*
X337000Y673631D02*
D03*
X347000D02*
D03*
X337000Y616000D02*
D03*
X347000D02*
D03*
X1184961Y701550D02*
D03*
X1174961D02*
D03*
X1184961Y640850D02*
D03*
X1174961D02*
D03*
X1002500Y659750D02*
D03*
X1012500D02*
D03*
X1002500Y599115D02*
D03*
X1012500D02*
D03*
X2032500Y923500D02*
D03*
X2042500D02*
D03*
Y913500D02*
D03*
X2032500D02*
D03*
X1905390Y859360D02*
D03*
X1915390D02*
D03*
X803260Y707706D02*
D03*
X813260D02*
D03*
X803260Y676705D02*
D03*
X813260D02*
D03*
X757000Y707706D02*
D03*
X747000D02*
D03*
X747000Y676705D02*
D03*
X757000D02*
D03*
X634900Y472121D02*
D03*
X644900D02*
D03*
X2248020Y728270D02*
D03*
X2258020D02*
D03*
X2248020Y718270D02*
D03*
X2258020D02*
D03*
X2277770Y663770D02*
D03*
X2267770D02*
D03*
X2277770Y653770D02*
D03*
X2267770D02*
D03*
X2021000Y888390D02*
D03*
X2011000D02*
D03*
X1977500Y876100D02*
D03*
X1967500D02*
D03*
X1977500Y866100D02*
D03*
X1967500D02*
D03*
Y856100D02*
D03*
X1977500D02*
D03*
X2205387Y705475D02*
D03*
X2195387D02*
D03*
X2205387Y695475D02*
D03*
X2195387D02*
D03*
X2205500Y757975D02*
D03*
X2195500D02*
D03*
X285042Y730390D02*
D03*
X295042D02*
D03*
X503910Y346815D02*
D03*
X513910D02*
D03*
X503910Y356815D02*
D03*
X513910D02*
D03*
Y366815D02*
D03*
X503910D02*
D03*
X199660Y536566D02*
D03*
X189660D02*
D03*
X220660D02*
D03*
X210660D02*
D03*
X699475Y913801D02*
D03*
X709475D02*
D03*
X766750Y830250D02*
D03*
X756750D02*
D03*
Y820250D02*
D03*
X766750D02*
D03*
X920000Y518000D02*
D03*
X930000D02*
D03*
X1024590Y514851D02*
D03*
X1034590Y514851D02*
D03*
X1024590Y504851D02*
D03*
X1034590D02*
D03*
X2005000Y855000D02*
D03*
X2015000D02*
D03*
X2005000Y865000D02*
D03*
X2015000D02*
D03*
Y845000D02*
D03*
X2005000D02*
D03*
X768700Y439694D02*
D03*
X778700D02*
D03*
X1161425Y666200D02*
D03*
X1171425D02*
D03*
X1171425Y676200D02*
D03*
X1161425D02*
D03*
X1153961Y640850D02*
D03*
X1163961D02*
D03*
X1153961Y701550D02*
D03*
X1163961D02*
D03*
X969146Y475370D02*
D03*
X979146D02*
D03*
X1053642Y457670D02*
D03*
X1063642D02*
D03*
X1176500Y845770D02*
D03*
X1186500D02*
D03*
X1176500Y855640D02*
D03*
X1186500D02*
D03*
X565110Y874445D02*
D03*
X555110D02*
D03*
X482610Y916945D02*
D03*
X492610D02*
D03*
X544110Y874445D02*
D03*
X534110D02*
D03*
X503610Y916945D02*
D03*
X513610D02*
D03*
X519360Y896695D02*
D03*
X529360D02*
D03*
X295042Y753144D02*
D03*
X285042D02*
D03*
X248966Y795475D02*
D03*
X238966D02*
D03*
X925896Y470370D02*
D03*
X915896D02*
D03*
Y480370D02*
D03*
X925896D02*
D03*
X931146Y497870D02*
D03*
X941146D02*
D03*
X264660Y473815D02*
D03*
X274660D02*
D03*
X241910Y522315D02*
D03*
X251910D02*
D03*
Y512315D02*
D03*
X241910Y512315D02*
D03*
X241910Y502315D02*
D03*
X251910D02*
D03*
X456360Y826945D02*
D03*
X466360D02*
D03*
X456360Y857695D02*
D03*
X466360D02*
D03*
Y877445D02*
D03*
X456360D02*
D03*
Y867695D02*
D03*
X466360D02*
D03*
X488768Y398507D02*
D03*
X478768D02*
D03*
X188542Y662515D02*
D03*
X198542D02*
D03*
X188542Y631015D02*
D03*
X198542D02*
D03*
X198542Y610515D02*
D03*
X188542Y610515D02*
D03*
Y621015D02*
D03*
X198542Y621015D02*
D03*
X2013000Y236750D02*
D03*
X2023000D02*
D03*
X2068000Y294750D02*
D03*
X2058000Y294750D02*
D03*
X2068000Y284500D02*
D03*
X2058000D02*
D03*
X2242500Y405750D02*
D03*
X2232500D02*
D03*
X1770761Y331795D02*
D03*
X1780761D02*
D03*
X1792750Y225750D02*
D03*
X1802750D02*
D03*
X2197500Y347750D02*
D03*
X2187500Y347750D02*
D03*
X1784261Y382295D02*
D03*
X1794261D02*
D03*
X1816250Y276250D02*
D03*
X1806250D02*
D03*
X2187500Y358000D02*
D03*
X2197500D02*
D03*
X1413750Y249395D02*
D03*
X1403750D02*
D03*
X2197750Y558500D02*
D03*
X2207750D02*
D03*
X2197750Y548250D02*
D03*
X2207750D02*
D03*
X2252750Y606250D02*
D03*
X2242750D02*
D03*
X1762500Y867500D02*
D03*
X1772500D02*
D03*
X1851500Y780750D02*
D03*
X1841500D02*
D03*
X1772500Y847500D02*
D03*
X1762500D02*
D03*
X1772500Y857500D02*
D03*
X1762500D02*
D03*
X1841500Y824000D02*
D03*
X1851500D02*
D03*
X1851500Y845000D02*
D03*
X1861500D02*
D03*
X1744860Y797650D02*
D03*
X1754860D02*
D03*
X1799000Y791250D02*
D03*
X1809000D02*
D03*
X1314750Y360043D02*
D03*
X1304750D02*
D03*
X1355500Y783750D02*
D03*
X1365500D02*
D03*
X1355500Y793750D02*
D03*
X1365500D02*
D03*
X1355500Y991250D02*
D03*
X1365500D02*
D03*
X1355500Y981250D02*
D03*
X1365500D02*
D03*
X1314750Y755043D02*
D03*
X1304750D02*
D03*
X1314750Y962604D02*
D03*
X1304750D02*
D03*
X1314750Y765104D02*
D03*
X1304750D02*
D03*
X1355500Y586250D02*
D03*
X1365500D02*
D03*
X1314750Y370103D02*
D03*
X1304750D02*
D03*
X1314750Y952543D02*
D03*
X1304750D02*
D03*
X1355500Y596250D02*
D03*
X1365500D02*
D03*
X1314750Y557543D02*
D03*
X1304750D02*
D03*
X1355500Y388750D02*
D03*
X1365500D02*
D03*
X1355500Y398750D02*
D03*
X1365500D02*
D03*
X1314750Y567603D02*
D03*
X1304750D02*
D03*
X1015304Y624433D02*
D03*
X1025304D02*
D03*
X1015304Y634433D02*
D03*
X1025304D02*
D03*
X1421000Y764250D02*
D03*
X1431000D02*
D03*
X1546750Y694500D02*
D03*
X1536750D02*
D03*
X1436336Y739516D02*
D03*
X1426336D02*
D03*
X1436336Y749516D02*
D03*
X1426336D02*
D03*
X1421000Y967000D02*
D03*
X1431000D02*
D03*
X1546750Y892000D02*
D03*
X1536750D02*
D03*
X1436336Y937016D02*
D03*
X1426336D02*
D03*
X1436336Y947016D02*
D03*
X1426336D02*
D03*
X1421000Y572000D02*
D03*
X1431000D02*
D03*
X1546750Y497000D02*
D03*
X1536750D02*
D03*
X1546500Y614000D02*
D03*
X1536500D02*
D03*
X1436336Y542016D02*
D03*
X1426336D02*
D03*
X1436336Y552016D02*
D03*
X1426336D02*
D03*
X1083500Y375750D02*
D03*
X1093500D02*
D03*
X1033519Y599082D02*
D03*
X1023519D02*
D03*
X1033519Y659783D02*
D03*
X1023519D02*
D03*
X379910Y476065D02*
D03*
X389910D02*
D03*
X379910Y486065D02*
D03*
X389910D02*
D03*
X356250Y639815D02*
D03*
X366250D02*
D03*
X432410Y686565D02*
D03*
X442410D02*
D03*
X442410Y655565D02*
D03*
X432410D02*
D03*
X356250Y649815D02*
D03*
X366250D02*
D03*
X737200Y472194D02*
D03*
X727200D02*
D03*
X1421000Y369500D02*
D03*
X1431000D02*
D03*
X1546500Y416500D02*
D03*
X1536500D02*
D03*
X1546750Y299500D02*
D03*
X1536750D02*
D03*
X1436336Y344516D02*
D03*
X1426336D02*
D03*
X1436336Y354516D02*
D03*
X1426336D02*
D03*
X294910Y494066D02*
D03*
X304910D02*
D03*
X267042Y657515D02*
D03*
X277042D02*
D03*
X477410Y753065D02*
D03*
X467410D02*
D03*
X1592770Y637400D02*
D03*
X1602770D02*
D03*
X1602520Y585650D02*
D03*
X1592520D02*
D03*
X1400250Y199000D02*
D03*
X1390250D02*
D03*
X2091500Y449250D02*
D03*
X2101500D02*
D03*
X2091500Y459250D02*
D03*
X2101500D02*
D03*
X2056500Y401250D02*
D03*
X2046500D02*
D03*
X2134994Y800500D02*
D03*
X2124994D02*
D03*
Y810500D02*
D03*
X2134994D02*
D03*
X2155994Y788250D02*
D03*
X2165994D02*
D03*
X2155994Y798250D02*
D03*
X2165994D02*
D03*
X2165994Y808250D02*
D03*
X2155994D02*
D03*
X1116000Y948000D02*
D03*
X1126000D02*
D03*
X1161221Y1020279D02*
D03*
X1151221D02*
D03*
X1136030Y1030969D02*
D03*
X1126030D02*
D03*
X1116059Y936971D02*
D03*
X1126059D02*
D03*
X1161220Y782530D02*
D03*
X1151221D02*
D03*
X1032250Y370750D02*
D03*
X1042250D02*
D03*
Y380750D02*
D03*
X1032250D02*
D03*
X680800Y441194D02*
D03*
X690800D02*
D03*
X680800Y472194D02*
D03*
X690800D02*
D03*
X768700Y470694D02*
D03*
X778700D02*
D03*
X691000Y707706D02*
D03*
X701000D02*
D03*
X691000Y676706D02*
D03*
X701000D02*
D03*
X644699Y707706D02*
D03*
X634699D02*
D03*
Y676705D02*
D03*
X644699D02*
D03*
X486750Y101500D02*
D03*
X476750D02*
D03*
X1014268Y754500D02*
D03*
X1004268D02*
D03*
X1063642Y467670D02*
D03*
X1053642D02*
D03*
X879260Y820250D02*
D03*
X869260D02*
D03*
Y830250D02*
D03*
X879260D02*
D03*
X821735Y913801D02*
D03*
X811735D02*
D03*
D24*
X320000Y550750D02*
D03*
X330000Y550750D02*
D03*
X320000Y561750D02*
D03*
X330000Y561750D02*
D03*
X352000Y550750D02*
D03*
X362000D02*
D03*
X352000Y561750D02*
D03*
X362000D02*
D03*
X367500Y538500D02*
D03*
X357500D02*
D03*
X368000Y521250D02*
D03*
X358000D02*
D03*
X352000Y583750D02*
D03*
X362000D02*
D03*
X320000Y583750D02*
D03*
X330000D02*
D03*
X352000Y572750D02*
D03*
X362000D02*
D03*
X320000Y572750D02*
D03*
X330000D02*
D03*
X1357750Y871000D02*
D03*
X1367750D02*
D03*
X1346750D02*
D03*
X1336750D02*
D03*
X1609750Y410250D02*
D03*
X1599750D02*
D03*
X2187500Y368250D02*
D03*
X2197500D02*
D03*
X1957000Y923750D02*
D03*
X1967000D02*
D03*
X1934500D02*
D03*
X1944500D02*
D03*
X1882500Y845000D02*
D03*
X1872500D02*
D03*
X813260Y666206D02*
D03*
X823260D02*
D03*
X803260D02*
D03*
X793260D02*
D03*
X644900Y440694D02*
D03*
X634900D02*
D03*
X2256770Y653770D02*
D03*
X2246770D02*
D03*
X2052500Y886500D02*
D03*
X2042500D02*
D03*
X2005000Y875500D02*
D03*
X2015000D02*
D03*
X1987500Y845500D02*
D03*
X1977500D02*
D03*
X2007000Y925680D02*
D03*
X1997000D02*
D03*
X1874750Y823750D02*
D03*
X1864750D02*
D03*
X503910Y336315D02*
D03*
X493910D02*
D03*
X721591Y939789D02*
D03*
X711591D02*
D03*
X746000Y830000D02*
D03*
X736000D02*
D03*
X1350750Y488000D02*
D03*
X1360750D02*
D03*
X1208750Y503000D02*
D03*
X1198750D02*
D03*
X2099250Y788000D02*
D03*
X2089250D02*
D03*
X272292Y696352D02*
D03*
X262292D02*
D03*
X980595Y754500D02*
D03*
X970595D02*
D03*
X931000Y670750D02*
D03*
X941000D02*
D03*
X931000Y702750D02*
D03*
X941000D02*
D03*
X504268Y412507D02*
D03*
X494268Y412507D02*
D03*
X2089000Y279250D02*
D03*
X2079000D02*
D03*
X2068000Y274000D02*
D03*
X2058000D02*
D03*
Y305250D02*
D03*
X2068000D02*
D03*
X2176500Y374250D02*
D03*
X2166500Y374250D02*
D03*
X2195477Y325728D02*
D03*
X2205477D02*
D03*
X2166500Y363250D02*
D03*
X2176500D02*
D03*
X1780761Y342545D02*
D03*
X1770761D02*
D03*
X1802750Y236500D02*
D03*
X1792750D02*
D03*
X2197500Y337250D02*
D03*
X2187500D02*
D03*
X2155750Y602250D02*
D03*
X2145750D02*
D03*
X2091500Y469750D02*
D03*
X2101500D02*
D03*
X2165750Y591250D02*
D03*
X2155750Y591250D02*
D03*
X2207750Y537750D02*
D03*
X2197750Y537750D02*
D03*
Y569000D02*
D03*
X2207750D02*
D03*
X2176750Y563750D02*
D03*
X2186750D02*
D03*
X2215591Y526227D02*
D03*
X2205591D02*
D03*
X2165750Y580250D02*
D03*
X2155750D02*
D03*
X2155750Y569250D02*
D03*
X2165750Y569250D02*
D03*
X1834860Y861400D02*
D03*
X1844860D02*
D03*
X1754860Y808150D02*
D03*
X1744860D02*
D03*
X1841500Y834500D02*
D03*
X1851500D02*
D03*
X1774860Y819150D02*
D03*
X1764860D02*
D03*
X1765360Y787150D02*
D03*
X1775360D02*
D03*
X1840500Y872500D02*
D03*
X1830500D02*
D03*
X1283250Y730000D02*
D03*
X1293250D02*
D03*
X1349000Y720000D02*
D03*
X1339000D02*
D03*
X1349000Y522500D02*
D03*
X1339000D02*
D03*
Y731000D02*
D03*
X1349000D02*
D03*
X1339000Y928500D02*
D03*
X1349000D02*
D03*
X1283250Y532500D02*
D03*
X1293250D02*
D03*
X1339000Y533500D02*
D03*
X1349000D02*
D03*
X1349000Y325250D02*
D03*
X1339000D02*
D03*
X1339000Y336000D02*
D03*
X1349000D02*
D03*
X1482750Y686250D02*
D03*
X1492750D02*
D03*
X1471750D02*
D03*
X1461750D02*
D03*
X1450750Y686250D02*
D03*
X1440750D02*
D03*
X1482750Y883750D02*
D03*
X1492750D02*
D03*
X1471750D02*
D03*
X1461750D02*
D03*
X1450750Y883750D02*
D03*
X1440750D02*
D03*
X1482750Y488750D02*
D03*
X1492750D02*
D03*
X1471750D02*
D03*
X1461750D02*
D03*
X1450750Y488750D02*
D03*
X1440750D02*
D03*
X1111570Y451096D02*
D03*
X1121570D02*
D03*
X1111570Y482522D02*
D03*
X1121570D02*
D03*
X1482750Y291250D02*
D03*
X1492750D02*
D03*
X1471750D02*
D03*
X1461750D02*
D03*
X1450750Y291250D02*
D03*
X1440750D02*
D03*
X435025Y454411D02*
D03*
X445025D02*
D03*
X435025Y486359D02*
D03*
X445025D02*
D03*
X452410Y645065D02*
D03*
X442410D02*
D03*
X422410Y645066D02*
D03*
X432410D02*
D03*
X727200Y440694D02*
D03*
X737200D02*
D03*
X1400250Y209750D02*
D03*
X1390250D02*
D03*
X2101500Y438750D02*
D03*
X2091500D02*
D03*
X2122500Y443750D02*
D03*
X2112500Y443750D02*
D03*
X2122500Y432750D02*
D03*
X2112500D02*
D03*
X2111994Y749763D02*
D03*
X2121994D02*
D03*
X2113500Y821000D02*
D03*
X2123500Y821000D02*
D03*
X1982000Y781250D02*
D03*
X1992000D02*
D03*
X2005500Y725250D02*
D03*
X2015500D02*
D03*
X2042250D02*
D03*
X2052250D02*
D03*
X556500Y127000D02*
D03*
X546500D02*
D03*
X691000Y666206D02*
D03*
X681000D02*
D03*
X701000D02*
D03*
X711000D02*
D03*
X757000D02*
D03*
X767000D02*
D03*
X747000D02*
D03*
X737000D02*
D03*
X644699D02*
D03*
X654699D02*
D03*
X634699D02*
D03*
X624699D02*
D03*
X848260Y830000D02*
D03*
X858260D02*
D03*
X823851Y939789D02*
D03*
X833851D02*
D03*
X1136500Y883000D02*
D03*
X1146500D02*
D03*
D25*
X341000Y551250D02*
D03*
Y561250D02*
D03*
X341000Y583250D02*
D03*
Y573250D02*
D03*
X1247250Y287750D02*
D03*
Y277750D02*
D03*
X1258250Y287750D02*
D03*
Y277750D02*
D03*
X1434750Y239000D02*
D03*
Y229000D02*
D03*
X1837250Y265750D02*
D03*
Y255750D02*
D03*
X1815261Y371795D02*
D03*
Y361795D02*
D03*
X1014090Y514851D02*
D03*
Y504851D02*
D03*
X1872500Y845000D02*
D03*
Y835000D02*
D03*
X1279000Y987250D02*
D03*
Y977250D02*
D03*
X1588750Y407750D02*
D03*
Y417750D02*
D03*
X2244020Y687520D02*
D03*
Y697520D02*
D03*
X2010500Y834500D02*
D03*
Y824500D02*
D03*
X2021500D02*
D03*
Y834500D02*
D03*
X2205500Y768475D02*
D03*
Y778475D02*
D03*
X1356000Y501000D02*
D03*
Y511000D02*
D03*
X1140425Y686200D02*
D03*
Y676200D02*
D03*
X1140425Y656200D02*
D03*
Y666200D02*
D03*
X1175500Y1023250D02*
D03*
Y1013250D02*
D03*
X1074642Y467670D02*
D03*
Y457670D02*
D03*
X1042642Y467670D02*
D03*
Y457670D02*
D03*
X1533250Y167750D02*
D03*
Y177750D02*
D03*
X1544250Y167750D02*
D03*
Y177750D02*
D03*
X1555250Y167750D02*
D03*
Y177750D02*
D03*
X1566250Y167750D02*
D03*
Y177750D02*
D03*
X480360Y867445D02*
D03*
Y877445D02*
D03*
X991595Y754500D02*
D03*
X991595Y764500D02*
D03*
X959595Y754500D02*
D03*
Y764500D02*
D03*
X248660Y461065D02*
D03*
Y451065D02*
D03*
X251910Y532816D02*
D03*
Y542815D02*
D03*
X522110Y869945D02*
D03*
Y879945D02*
D03*
X466360Y837445D02*
D03*
Y847445D02*
D03*
X931000Y681750D02*
D03*
Y691750D02*
D03*
X251042Y686765D02*
D03*
Y696765D02*
D03*
X198542Y652015D02*
D03*
Y642015D02*
D03*
X1197312Y549983D02*
D03*
Y539983D02*
D03*
X2079000Y268250D02*
D03*
Y258250D02*
D03*
X2049841Y316772D02*
D03*
Y326772D02*
D03*
X2038750Y318750D02*
D03*
Y308750D02*
D03*
X1852250Y378000D02*
D03*
Y368000D02*
D03*
X1772739Y363886D02*
D03*
Y353886D02*
D03*
X1794727Y247841D02*
D03*
Y257841D02*
D03*
X1832250Y286750D02*
D03*
Y276750D02*
D03*
X1810261Y393295D02*
D03*
Y383295D02*
D03*
X2216750Y323750D02*
D03*
Y333750D02*
D03*
X1784261Y361795D02*
D03*
Y371795D02*
D03*
X1806250Y255750D02*
D03*
Y265750D02*
D03*
X1392227Y231159D02*
D03*
Y221159D02*
D03*
X2227000Y534250D02*
D03*
Y524250D02*
D03*
X2191000Y604500D02*
D03*
Y614500D02*
D03*
X1830500Y790750D02*
D03*
Y780750D02*
D03*
X1727860Y814150D02*
D03*
Y804150D02*
D03*
X1787500Y859500D02*
D03*
Y869500D02*
D03*
X1809500D02*
D03*
Y859500D02*
D03*
X1798500Y869500D02*
D03*
Y859500D02*
D03*
X2177000Y863000D02*
D03*
Y873000D02*
D03*
X2192250Y863100D02*
D03*
Y873100D02*
D03*
X1293250Y345250D02*
D03*
Y335250D02*
D03*
X1482750Y665250D02*
D03*
Y675250D02*
D03*
X1471750Y665250D02*
D03*
Y675250D02*
D03*
X1450750Y665250D02*
D03*
Y675250D02*
D03*
X1415336Y749516D02*
D03*
Y739516D02*
D03*
X1482750Y862750D02*
D03*
Y872750D02*
D03*
X1471750Y862750D02*
D03*
Y872750D02*
D03*
X1450750Y862750D02*
D03*
Y872750D02*
D03*
X1415336Y947016D02*
D03*
Y937017D02*
D03*
X1482750Y467750D02*
D03*
Y477750D02*
D03*
X1471750Y467750D02*
D03*
Y477750D02*
D03*
X1450750Y467750D02*
D03*
Y477750D02*
D03*
X1415336Y552016D02*
D03*
Y542016D02*
D03*
X1046304Y644433D02*
D03*
Y634433D02*
D03*
Y614433D02*
D03*
Y624433D02*
D03*
X1482750Y270250D02*
D03*
Y280250D02*
D03*
X1471750Y270250D02*
D03*
Y280250D02*
D03*
X1450750Y270250D02*
D03*
Y280250D02*
D03*
X1415336Y354516D02*
D03*
Y344516D02*
D03*
X368910Y486065D02*
D03*
Y476065D02*
D03*
X387250Y659815D02*
D03*
X387250Y649815D02*
D03*
X387250Y629815D02*
D03*
Y639815D02*
D03*
X1403750Y229000D02*
D03*
Y239000D02*
D03*
X1429750Y260000D02*
D03*
Y250000D02*
D03*
X2166750Y602250D02*
D03*
Y612250D02*
D03*
X2072250Y473250D02*
D03*
Y483250D02*
D03*
X2083659Y481159D02*
D03*
Y491159D02*
D03*
X2134994Y831000D02*
D03*
Y821000D02*
D03*
X2155994Y821000D02*
D03*
X2155994Y831000D02*
D03*
X1992000Y760250D02*
D03*
Y770250D02*
D03*
X1992000Y739000D02*
D03*
Y749000D02*
D03*
X1889000Y812500D02*
D03*
Y802500D02*
D03*
X1900000Y812500D02*
D03*
Y802500D02*
D03*
X1911000Y812500D02*
D03*
Y802500D02*
D03*
X1889000Y791500D02*
D03*
Y781500D02*
D03*
X1900000Y791500D02*
D03*
Y781500D02*
D03*
X1911000Y791500D02*
D03*
Y781500D02*
D03*
X1197250Y569250D02*
D03*
Y579250D02*
D03*
X521660Y568815D02*
D03*
Y578815D02*
D03*
X543910Y554566D02*
D03*
Y564565D02*
D03*
X532910D02*
D03*
Y554566D02*
D03*
X521910Y549815D02*
D03*
Y539815D02*
D03*
X776500Y128500D02*
D03*
Y118500D02*
D03*
X556500Y116000D02*
D03*
Y106000D02*
D03*
X400410Y476065D02*
D03*
Y486065D02*
D03*
X1114500Y870000D02*
D03*
Y860000D02*
D03*
D26*
X1098286Y700464D02*
D03*
X1091215Y707535D02*
D03*
X1055786Y658214D02*
D03*
X1048715Y665285D02*
D03*
X1042934Y423017D02*
D03*
X1035863Y430088D02*
D03*
X1281500Y671783D02*
D03*
X1274429Y678854D02*
D03*
X557089Y383936D02*
D03*
X550018Y391007D02*
D03*
X931089Y656704D02*
D03*
X938160Y649633D02*
D03*
X1033857Y680300D02*
D03*
X1040928Y673229D02*
D03*
X1076441Y722309D02*
D03*
X1083512Y715238D02*
D03*
X441945Y378030D02*
D03*
X434874Y385101D02*
D03*
X1074739Y688661D02*
D03*
X1067668Y695732D02*
D03*
X1067667Y681590D02*
D03*
X1060596Y688661D02*
D03*
D27*
X1327250Y1002500D02*
D03*
Y985500D02*
D03*
X791101Y677606D02*
D03*
Y694606D02*
D03*
X825420Y677606D02*
D03*
Y694606D02*
D03*
X769160Y677606D02*
D03*
Y694606D02*
D03*
X734840Y677606D02*
D03*
Y694606D02*
D03*
X454750Y336250D02*
D03*
Y353250D02*
D03*
X736475Y876801D02*
D03*
Y859801D02*
D03*
X697975Y821173D02*
D03*
Y838173D02*
D03*
X657428Y861301D02*
D03*
Y878301D02*
D03*
X769688Y878301D02*
D03*
Y861301D02*
D03*
X251910Y473815D02*
D03*
Y490816D02*
D03*
X503768Y398507D02*
D03*
Y381507D02*
D03*
X1326500Y593750D02*
D03*
Y610750D02*
D03*
X1327000Y788000D02*
D03*
Y805000D02*
D03*
X1340750Y788000D02*
D03*
Y805000D02*
D03*
X1341250Y985500D02*
D03*
Y1002500D02*
D03*
X1340750Y590500D02*
D03*
Y573500D02*
D03*
Y393000D02*
D03*
Y376000D02*
D03*
X1441500Y815250D02*
D03*
Y832250D02*
D03*
X1419000Y703750D02*
D03*
Y720750D02*
D03*
X1562750Y801000D02*
D03*
Y818000D02*
D03*
X1575750D02*
D03*
Y801000D02*
D03*
X1419000Y901250D02*
D03*
Y918250D02*
D03*
X1566250Y993000D02*
D03*
Y1010000D02*
D03*
X1579250D02*
D03*
Y993000D02*
D03*
X1441500Y634750D02*
D03*
X1441500Y617750D02*
D03*
X1419000Y506250D02*
D03*
Y523250D02*
D03*
X459410Y656916D02*
D03*
X459410Y673915D02*
D03*
X415410Y656916D02*
D03*
Y673915D02*
D03*
X1441500Y420250D02*
D03*
Y437250D02*
D03*
X1419000Y308750D02*
D03*
Y325750D02*
D03*
X1992000Y708250D02*
D03*
Y725250D02*
D03*
X2029000Y708250D02*
D03*
X2029000Y725250D02*
D03*
X1136250Y1020250D02*
D03*
Y1003250D02*
D03*
X1132500Y827250D02*
D03*
Y810250D02*
D03*
X677600Y677365D02*
D03*
Y694365D02*
D03*
X714400Y677365D02*
D03*
Y694365D02*
D03*
X658100Y677365D02*
D03*
Y694365D02*
D03*
X621299Y677365D02*
D03*
Y694365D02*
D03*
X810235Y838422D02*
D03*
Y821422D02*
D03*
X848735Y859801D02*
D03*
Y876801D02*
D03*
D28*
X1352250Y884500D02*
D03*
X1352250Y904500D02*
D03*
X2220000Y777000D02*
D03*
Y797000D02*
D03*
X438750Y356250D02*
D03*
Y336250D02*
D03*
X251910Y594505D02*
D03*
Y574505D02*
D03*
X471500Y111750D02*
D03*
Y131750D02*
D03*
X1318250Y744000D02*
D03*
Y724000D02*
D03*
X1318250Y349250D02*
D03*
Y329250D02*
D03*
X1318250Y546500D02*
D03*
Y526500D02*
D03*
X1510000Y860000D02*
D03*
Y840000D02*
D03*
X1536750Y272500D02*
D03*
Y252500D02*
D03*
D29*
X1135550Y613901D02*
D03*
X1122230D02*
D03*
X1108910D02*
D03*
X1095590D02*
D03*
X1088930D02*
D03*
X1098920Y610571D02*
D03*
X1105580D02*
D03*
X1112240D02*
D03*
X1118900D02*
D03*
X1125560D02*
D03*
X1132220D02*
D03*
X1138880D02*
D03*
X1092260D02*
D03*
X1082270Y613900D02*
D03*
X1088930Y607241D02*
D03*
X1148870D02*
D03*
X1142210D02*
D03*
X1135550D02*
D03*
X1128890D02*
D03*
X1122230D02*
D03*
X1115570D02*
D03*
X1108910D02*
D03*
X1102250D02*
D03*
X1095590D02*
D03*
X1145540Y603911D02*
D03*
X1138880D02*
D03*
X1132220D02*
D03*
X1125560D02*
D03*
X1118900D02*
D03*
X1112240D02*
D03*
X1105580D02*
D03*
X1098920D02*
D03*
X1092260D02*
D03*
X1102250Y600581D02*
D03*
X1095590D02*
D03*
X1108910D02*
D03*
X1115570D02*
D03*
X1122230D02*
D03*
X1128890D02*
D03*
X1135550D02*
D03*
X1142210D02*
D03*
X1148870D02*
D03*
X1072280Y597251D02*
D03*
X1078940D02*
D03*
X1085600D02*
D03*
X1092260D02*
D03*
X1098920D02*
D03*
X1105580D02*
D03*
X1112240D02*
D03*
X1118900D02*
D03*
X1125560D02*
D03*
X1132220D02*
D03*
X1138880D02*
D03*
X1145540D02*
D03*
X1152200D02*
D03*
X1172180Y603911D02*
D03*
X1168850Y607241D02*
D03*
X1172180Y597251D02*
D03*
X1168850Y600581D02*
D03*
X1165520Y603911D02*
D03*
X1162190Y607241D02*
D03*
X1155530Y600581D02*
D03*
X1152200Y603911D02*
D03*
X1158860D02*
D03*
X1155530Y607241D02*
D03*
X1162190Y600581D02*
D03*
X1165520Y597251D02*
D03*
X1168850Y593921D02*
D03*
X1175510Y587261D02*
D03*
X1172180Y590591D02*
D03*
X1178841Y583931D02*
D03*
X1158860Y597251D02*
D03*
X1162190Y593921D02*
D03*
X1165520Y590591D02*
D03*
X1172180Y583931D02*
D03*
X1168850Y587261D02*
D03*
X1175511Y580601D02*
D03*
X1165520Y583931D02*
D03*
X1168850Y580601D02*
D03*
X1175510Y573941D02*
D03*
X1172180Y577271D02*
D03*
X1178841Y570611D02*
D03*
X1165520Y577271D02*
D03*
X1168850Y573941D02*
D03*
X1175510Y567281D02*
D03*
X1172180Y570611D02*
D03*
X1165520Y570611D02*
D03*
X1168850Y567281D02*
D03*
X1175510Y560620D02*
D03*
X1172180Y563951D02*
D03*
X1178841Y557290D02*
D03*
X1162190Y567281D02*
D03*
X1165520Y563951D02*
D03*
X1168850Y560620D02*
D03*
X1175510Y553960D02*
D03*
X1172180Y557290D02*
D03*
X1162190Y560620D02*
D03*
X1165520Y557290D02*
D03*
X1168850Y553960D02*
D03*
X1175510Y547300D02*
D03*
X1172180Y550630D02*
D03*
X1178841Y543970D02*
D03*
X1162190Y553960D02*
D03*
X1165520Y550630D02*
D03*
X1168850Y547300D02*
D03*
X1175510Y540640D02*
D03*
X1172180Y543970D02*
D03*
X1162190Y547300D02*
D03*
X1165520Y543970D02*
D03*
X1168850Y540640D02*
D03*
X1175510Y533980D02*
D03*
X1172180Y537310D02*
D03*
X1178841Y530650D02*
D03*
X1162190Y540640D02*
D03*
X1165520Y537310D02*
D03*
X1168850Y533980D02*
D03*
X1175510Y527320D02*
D03*
X1172180Y530650D02*
D03*
X1162190Y533980D02*
D03*
X1165520Y530650D02*
D03*
X1168850Y527320D02*
D03*
X1175510Y520660D02*
D03*
X1172180Y523990D02*
D03*
X1178841Y517330D02*
D03*
X1162190Y527320D02*
D03*
X1165520Y523990D02*
D03*
X1168850Y520660D02*
D03*
X1175510Y514000D02*
D03*
X1172180Y517330D02*
D03*
X1178841Y510670D02*
D03*
X1162190Y520660D02*
D03*
X1165520Y517330D02*
D03*
X1168850Y514000D02*
D03*
X1155530Y520660D02*
D03*
X1158860Y517330D02*
D03*
X1162190Y514000D02*
D03*
X1168850Y507340D02*
D03*
X1165520Y510670D02*
D03*
X1172180Y504010D02*
D03*
X1165520D02*
D03*
X1158860Y510670D02*
D03*
X1162190Y507340D02*
D03*
X1155530Y514000D02*
D03*
X1152200Y517330D02*
D03*
X1148870Y520660D02*
D03*
X1152200Y510670D02*
D03*
X1155530Y507340D02*
D03*
X1152200Y504010D02*
D03*
X1148870Y507340D02*
D03*
X1132220Y510670D02*
D03*
X1145540D02*
D03*
X1142210Y507340D02*
D03*
Y514000D02*
D03*
X1138880Y510670D02*
D03*
X1135550Y514000D02*
D03*
X1138880Y517330D02*
D03*
X1122230Y507340D02*
D03*
X1125560Y510670D02*
D03*
X1128890Y514000D02*
D03*
X1132220Y517330D02*
D03*
X1135550Y520660D02*
D03*
X1128890D02*
D03*
X1075610Y507340D02*
D03*
X1082270Y607240D02*
D03*
X1085600Y603910D02*
D03*
X1078940Y610570D02*
D03*
X1072280D02*
D03*
X1082270Y600580D02*
D03*
X1075610Y607240D02*
D03*
X1078940Y603910D02*
D03*
X1072280D02*
D03*
X1068950Y607240D02*
D03*
X1082270Y593920D02*
D03*
X1085600Y590590D02*
D03*
X1075610Y600580D02*
D03*
X1082270Y587260D02*
D03*
X1085600Y583930D02*
D03*
X1075610Y593920D02*
D03*
X1072280Y590590D02*
D03*
X1068950Y593920D02*
D03*
X1082270Y580600D02*
D03*
X1085600Y577270D02*
D03*
X1075610Y587260D02*
D03*
X1078940Y583930D02*
D03*
X1072280D02*
D03*
X1068950Y587260D02*
D03*
X1075610Y580600D02*
D03*
X1078940Y577270D02*
D03*
X1072280D02*
D03*
X1082270Y567280D02*
D03*
X1085600Y563950D02*
D03*
X1075610Y573940D02*
D03*
X1078940Y570610D02*
D03*
X1072280D02*
D03*
X1068950Y573940D02*
D03*
X1082270Y560620D02*
D03*
X1085600Y557290D02*
D03*
X1075610Y567280D02*
D03*
X1078940Y563950D02*
D03*
Y557290D02*
D03*
X1075610Y560620D02*
D03*
X1085600Y550630D02*
D03*
X1078940D02*
D03*
X1075610Y553960D02*
D03*
X1085600Y543970D02*
D03*
X1082270Y547300D02*
D03*
X1068950Y560620D02*
D03*
X1072280Y557290D02*
D03*
X1082270Y540640D02*
D03*
X1078940Y543970D02*
D03*
X1085600Y537310D02*
D03*
X1072280Y550630D02*
D03*
X1075610Y547300D02*
D03*
X1072280Y543970D02*
D03*
X1068950Y547300D02*
D03*
X1115570Y520660D02*
D03*
X1112240Y517330D02*
D03*
X1108910Y520660D02*
D03*
X1102250D02*
D03*
X1108910Y514000D02*
D03*
X1105580Y517330D02*
D03*
X1102250Y514000D02*
D03*
X1105580Y510670D02*
D03*
X1095590Y520660D02*
D03*
X1098920Y517330D02*
D03*
X1082270Y533980D02*
D03*
X1085600Y530650D02*
D03*
X1075610Y540640D02*
D03*
X1078940Y537310D02*
D03*
X1072280Y530650D02*
D03*
X1068950Y533980D02*
D03*
X1075610D02*
D03*
X1072280Y537310D02*
D03*
X1095590Y507340D02*
D03*
X1098920Y504010D02*
D03*
Y510670D02*
D03*
X1102250Y507340D02*
D03*
X1082270Y527320D02*
D03*
X1078940Y530650D02*
D03*
X1088930Y520660D02*
D03*
X1095590Y514000D02*
D03*
X1092260Y517330D02*
D03*
X1075610Y527320D02*
D03*
X1078940Y523990D02*
D03*
X1085600Y517330D02*
D03*
X1082270Y520660D02*
D03*
X1092260Y510670D02*
D03*
X1088930Y514000D02*
D03*
X1085600Y510670D02*
D03*
X1088930Y507340D02*
D03*
X1078940Y517330D02*
D03*
X1082270Y514000D02*
D03*
X1075610Y520660D02*
D03*
X1072280Y523990D02*
D03*
X1068950Y520660D02*
D03*
X1072280Y517330D02*
D03*
X1075610Y514000D02*
D03*
X1078940Y510670D02*
D03*
X1082270Y507340D02*
D03*
X1085600Y504010D02*
D03*
X461610Y613336D02*
D03*
X448290D02*
D03*
X434970D02*
D03*
X421650D02*
D03*
X414990D02*
D03*
X424980Y610006D02*
D03*
X431640D02*
D03*
X438300D02*
D03*
X444960D02*
D03*
X451620D02*
D03*
X458280D02*
D03*
X464940D02*
D03*
X418320D02*
D03*
X408330Y613336D02*
D03*
X414990Y606676D02*
D03*
X474930D02*
D03*
X468270D02*
D03*
X461610D02*
D03*
X454950D02*
D03*
X448290D02*
D03*
X441630D02*
D03*
X434970D02*
D03*
X428310D02*
D03*
X421650D02*
D03*
X471600Y603346D02*
D03*
X464940D02*
D03*
X458280D02*
D03*
X451620D02*
D03*
X444960D02*
D03*
X438300D02*
D03*
X431640D02*
D03*
X424980D02*
D03*
X418320D02*
D03*
X428310Y600016D02*
D03*
X421650D02*
D03*
X434970D02*
D03*
X441630D02*
D03*
X448290D02*
D03*
X454950D02*
D03*
X461610D02*
D03*
X468270D02*
D03*
X474930D02*
D03*
X398340Y596686D02*
D03*
X405000D02*
D03*
X411660D02*
D03*
X418320D02*
D03*
X424980D02*
D03*
X431640D02*
D03*
X438300D02*
D03*
X444960D02*
D03*
X451620D02*
D03*
X458280D02*
D03*
X464940D02*
D03*
X471600D02*
D03*
X478260D02*
D03*
X498240Y603346D02*
D03*
X494910Y606676D02*
D03*
X498240Y596686D02*
D03*
X494910Y600016D02*
D03*
X491580Y603346D02*
D03*
X488250Y606676D02*
D03*
X481590Y600016D02*
D03*
X478260Y603346D02*
D03*
X484920D02*
D03*
X481590Y606676D02*
D03*
X488250Y600016D02*
D03*
X491580Y596686D02*
D03*
X494910Y593356D02*
D03*
X501571Y586696D02*
D03*
X498240Y590026D02*
D03*
X504901Y583366D02*
D03*
X484920Y596686D02*
D03*
X488250Y593356D02*
D03*
X491580Y590026D02*
D03*
X498241Y583366D02*
D03*
X494910Y586696D02*
D03*
X501571Y580036D02*
D03*
X491580Y583366D02*
D03*
X494910Y580036D02*
D03*
X501571Y573376D02*
D03*
X498240Y576706D02*
D03*
X504901Y570046D02*
D03*
X491580Y576706D02*
D03*
X494910Y573376D02*
D03*
X501571Y566716D02*
D03*
X498240Y570046D02*
D03*
X491580Y570046D02*
D03*
X494910Y566716D02*
D03*
X501571Y560056D02*
D03*
X498240Y563386D02*
D03*
X504901Y556726D02*
D03*
X488250Y566716D02*
D03*
X491580Y563386D02*
D03*
X494910Y560056D02*
D03*
X501571Y553396D02*
D03*
X498240Y556726D02*
D03*
X488250Y560056D02*
D03*
X491580Y556726D02*
D03*
X494910Y553396D02*
D03*
X501571Y546736D02*
D03*
X498240Y550066D02*
D03*
X504901Y543406D02*
D03*
X488250Y553396D02*
D03*
X491580Y550066D02*
D03*
X494910Y546736D02*
D03*
X501571Y540076D02*
D03*
X498240Y543406D02*
D03*
X488250Y546736D02*
D03*
X491580Y543405D02*
D03*
X494910Y540076D02*
D03*
X501571Y533415D02*
D03*
X498240Y536745D02*
D03*
X504901Y530085D02*
D03*
X488250Y540075D02*
D03*
X491580Y536745D02*
D03*
X494910Y533415D02*
D03*
X501571Y526755D02*
D03*
X498240Y530085D02*
D03*
X488250Y533415D02*
D03*
X491580Y530085D02*
D03*
X494910Y526755D02*
D03*
X501571Y520095D02*
D03*
X498240Y523425D02*
D03*
X504901Y516765D02*
D03*
X488250Y526755D02*
D03*
X491580Y523425D02*
D03*
X494910Y520095D02*
D03*
X501571Y513435D02*
D03*
X498240Y516765D02*
D03*
X504901Y510105D02*
D03*
X488250Y520095D02*
D03*
X491580Y516765D02*
D03*
X494910Y513435D02*
D03*
X481590Y520095D02*
D03*
X484920Y516765D02*
D03*
X488250Y513435D02*
D03*
X494910Y506775D02*
D03*
X491580Y510105D02*
D03*
X498241Y503445D02*
D03*
X491580D02*
D03*
X484920Y510105D02*
D03*
X488250Y506775D02*
D03*
X481590Y513435D02*
D03*
X478260Y516765D02*
D03*
X474930Y520095D02*
D03*
X478260Y510105D02*
D03*
X481590Y506775D02*
D03*
X478260Y503445D02*
D03*
X474930Y506775D02*
D03*
X458280Y510105D02*
D03*
X471600D02*
D03*
X468270Y506775D02*
D03*
Y513435D02*
D03*
X464940Y510105D02*
D03*
X461610Y513435D02*
D03*
X464940Y516765D02*
D03*
X448290Y506775D02*
D03*
X451620Y510105D02*
D03*
X454950Y513435D02*
D03*
X458280Y516765D02*
D03*
X461610Y520095D02*
D03*
X454950D02*
D03*
X401670Y506775D02*
D03*
X408330Y606676D02*
D03*
X411660Y603346D02*
D03*
X405000Y610006D02*
D03*
X398340D02*
D03*
X408330Y600016D02*
D03*
X401670Y606676D02*
D03*
X405000Y603346D02*
D03*
X398340D02*
D03*
X395010Y606676D02*
D03*
X408330Y593356D02*
D03*
X411660Y590026D02*
D03*
X401670Y600016D02*
D03*
X408330Y586696D02*
D03*
X411660Y583366D02*
D03*
X401670Y593356D02*
D03*
X398340Y590026D02*
D03*
X395010Y593356D02*
D03*
X408330Y580036D02*
D03*
X411660Y576706D02*
D03*
X401670Y586696D02*
D03*
X405000Y583366D02*
D03*
X398340D02*
D03*
X395010Y586696D02*
D03*
X401670Y580036D02*
D03*
X405000Y576706D02*
D03*
X398340D02*
D03*
X408330Y566716D02*
D03*
X411660Y563386D02*
D03*
X401670Y573376D02*
D03*
X405000Y570046D02*
D03*
X398340D02*
D03*
X395010Y573376D02*
D03*
X408330Y560056D02*
D03*
X411660Y556726D02*
D03*
X401670Y566716D02*
D03*
X405000Y563386D02*
D03*
Y556726D02*
D03*
X401670Y560056D02*
D03*
X411660Y550065D02*
D03*
X405000D02*
D03*
X401670Y553396D02*
D03*
X411660Y543405D02*
D03*
X408330Y546735D02*
D03*
X395010Y560056D02*
D03*
X398340Y556726D02*
D03*
X408330Y540075D02*
D03*
X405000Y543405D02*
D03*
X411660Y536745D02*
D03*
X398340Y550065D02*
D03*
X401670Y546735D02*
D03*
X398340Y543405D02*
D03*
X395010Y546735D02*
D03*
X441630Y520095D02*
D03*
X438300Y516765D02*
D03*
X434970Y520095D02*
D03*
X428310D02*
D03*
X434970Y513435D02*
D03*
X431640Y516765D02*
D03*
X428310Y513435D02*
D03*
X431640Y510105D02*
D03*
X421650Y520095D02*
D03*
X424980Y516765D02*
D03*
X408330Y533415D02*
D03*
X411660Y530085D02*
D03*
X401670Y540075D02*
D03*
X405000Y536745D02*
D03*
X398340Y530085D02*
D03*
X395010Y533415D02*
D03*
X401670D02*
D03*
X398340Y536745D02*
D03*
X421650Y506775D02*
D03*
X424980Y503445D02*
D03*
Y510105D02*
D03*
X428310Y506775D02*
D03*
X408330Y526755D02*
D03*
X405000Y530085D02*
D03*
X414990Y520095D02*
D03*
X421650Y513435D02*
D03*
X418320Y516765D02*
D03*
X401670Y526755D02*
D03*
X405000Y523425D02*
D03*
X411660Y516765D02*
D03*
X408330Y520095D02*
D03*
X418320Y510105D02*
D03*
X414990Y513435D02*
D03*
X411660Y510105D02*
D03*
X414990Y506775D02*
D03*
X405000Y516765D02*
D03*
X408330Y513435D02*
D03*
X401670Y520095D02*
D03*
X398340Y523425D02*
D03*
X395010Y520095D02*
D03*
X398340Y516765D02*
D03*
X401670Y513435D02*
D03*
X405000Y510105D02*
D03*
X408330Y506775D02*
D03*
X411660Y503445D02*
D03*
X759110Y613336D02*
D03*
X745790D02*
D03*
X732470D02*
D03*
X719150D02*
D03*
X712490D02*
D03*
X722480Y610006D02*
D03*
X729140D02*
D03*
X735800D02*
D03*
X742460D02*
D03*
X749120D02*
D03*
X755780D02*
D03*
X762440D02*
D03*
X715820D02*
D03*
X705830Y613336D02*
D03*
X712490Y606676D02*
D03*
X772430D02*
D03*
X765770D02*
D03*
X759110D02*
D03*
X752450D02*
D03*
X745790D02*
D03*
X739130D02*
D03*
X732470D02*
D03*
X725810D02*
D03*
X719150D02*
D03*
X769100Y603346D02*
D03*
X762440D02*
D03*
X755780D02*
D03*
X749120D02*
D03*
X742460D02*
D03*
X735800D02*
D03*
X729140D02*
D03*
X722480D02*
D03*
X715820D02*
D03*
X725810Y600016D02*
D03*
X719150D02*
D03*
X732470D02*
D03*
X739130D02*
D03*
X745790D02*
D03*
X752450D02*
D03*
X759110D02*
D03*
X765770D02*
D03*
X772430D02*
D03*
X695840Y596686D02*
D03*
X702500D02*
D03*
X709160D02*
D03*
X715820D02*
D03*
X722480D02*
D03*
X729140D02*
D03*
X735800D02*
D03*
X742460D02*
D03*
X749120D02*
D03*
X755780D02*
D03*
X762440D02*
D03*
X769100D02*
D03*
X775760D02*
D03*
X795741Y603346D02*
D03*
X792411Y606676D02*
D03*
X795741Y596686D02*
D03*
X792411Y600016D02*
D03*
X789080Y603346D02*
D03*
X785750Y606676D02*
D03*
X779090Y600016D02*
D03*
X775760Y603346D02*
D03*
X782420D02*
D03*
X779090Y606676D02*
D03*
X785750Y600016D02*
D03*
X789080Y596686D02*
D03*
X792411Y593356D02*
D03*
X799071Y586696D02*
D03*
X795741Y590026D02*
D03*
X802401Y583366D02*
D03*
X782420Y596686D02*
D03*
X785750Y593356D02*
D03*
X789080Y590026D02*
D03*
X795741Y583366D02*
D03*
X792411Y586696D02*
D03*
X799071Y580036D02*
D03*
X789080Y583366D02*
D03*
X792411Y580036D02*
D03*
X799071Y573376D02*
D03*
X795741Y576706D02*
D03*
X802401Y570046D02*
D03*
X789080Y576706D02*
D03*
X792411Y573376D02*
D03*
X799071Y566716D02*
D03*
X795741Y570046D02*
D03*
X789080Y570046D02*
D03*
X792411Y566716D02*
D03*
X799071Y560056D02*
D03*
X795741Y563386D02*
D03*
X802401Y556726D02*
D03*
X785750Y566716D02*
D03*
X789080Y563386D02*
D03*
X792411Y560056D02*
D03*
X799071Y553396D02*
D03*
X795741Y556726D02*
D03*
X785750Y560056D02*
D03*
X789080Y556726D02*
D03*
X792411Y553396D02*
D03*
X799071Y546736D02*
D03*
X795741Y550066D02*
D03*
X802401Y543406D02*
D03*
X785750Y553396D02*
D03*
X789080Y550066D02*
D03*
X792411Y546736D02*
D03*
X799071Y540075D02*
D03*
X795741Y543405D02*
D03*
X785750Y546735D02*
D03*
X789080Y543405D02*
D03*
X792411Y540075D02*
D03*
X799071Y533415D02*
D03*
X795741Y536745D02*
D03*
X802401Y530085D02*
D03*
X785750Y540075D02*
D03*
X789080Y536745D02*
D03*
X792411Y533415D02*
D03*
X799071Y526755D02*
D03*
X795741Y530085D02*
D03*
X785750Y533415D02*
D03*
X789080Y530085D02*
D03*
X792411Y526755D02*
D03*
X799071Y520095D02*
D03*
X795741Y523425D02*
D03*
X802401Y516765D02*
D03*
X785750Y526755D02*
D03*
X789080Y523425D02*
D03*
X792411Y520095D02*
D03*
X799071Y513435D02*
D03*
X795741Y516765D02*
D03*
X802401Y510105D02*
D03*
X785750Y520095D02*
D03*
X789080Y516765D02*
D03*
X792411Y513435D02*
D03*
X779090Y520095D02*
D03*
X782420Y516765D02*
D03*
X785750Y513435D02*
D03*
X792411Y506775D02*
D03*
X789080Y510105D02*
D03*
X795741Y503445D02*
D03*
X789080D02*
D03*
X782420Y510105D02*
D03*
X785750Y506775D02*
D03*
X779090Y513435D02*
D03*
X775760Y516765D02*
D03*
X772430Y520095D02*
D03*
X775760Y510105D02*
D03*
X779090Y506775D02*
D03*
X775760Y503445D02*
D03*
X772430Y506775D02*
D03*
X755780Y510105D02*
D03*
X769100D02*
D03*
X765770Y506775D02*
D03*
Y513435D02*
D03*
X762440Y510105D02*
D03*
X759110Y513435D02*
D03*
X762440Y516765D02*
D03*
X745790Y506775D02*
D03*
X749120Y510105D02*
D03*
X752450Y513435D02*
D03*
X755780Y516765D02*
D03*
X759110Y520095D02*
D03*
X752450D02*
D03*
X699170Y506775D02*
D03*
X705830Y606676D02*
D03*
X709160Y603346D02*
D03*
X702500Y610006D02*
D03*
X695840D02*
D03*
X705830Y600016D02*
D03*
X699170Y606676D02*
D03*
X702500Y603346D02*
D03*
X695840D02*
D03*
X692510Y606676D02*
D03*
X705830Y593356D02*
D03*
X709160Y590026D02*
D03*
X699170Y600016D02*
D03*
X705830Y586696D02*
D03*
X709160Y583366D02*
D03*
X699170Y593356D02*
D03*
X695840Y590026D02*
D03*
X692510Y593356D02*
D03*
X705830Y580036D02*
D03*
X709160Y576706D02*
D03*
X699170Y586696D02*
D03*
X702500Y583366D02*
D03*
X695840D02*
D03*
X692510Y586696D02*
D03*
X699170Y580036D02*
D03*
X702500Y576706D02*
D03*
X695840D02*
D03*
X705830Y566716D02*
D03*
X709160Y563386D02*
D03*
X699170Y573376D02*
D03*
X702500Y570046D02*
D03*
X695840D02*
D03*
X692510Y573376D02*
D03*
X705830Y560056D02*
D03*
X709160Y556726D02*
D03*
X699170Y566716D02*
D03*
X702500Y563386D02*
D03*
Y556726D02*
D03*
X699170Y560056D02*
D03*
X709160Y550065D02*
D03*
X702500D02*
D03*
X699170Y553396D02*
D03*
X709160Y543405D02*
D03*
X705830Y546735D02*
D03*
X692510Y560056D02*
D03*
X695840Y556726D02*
D03*
X705830Y540075D02*
D03*
X702500Y543405D02*
D03*
X709160Y536745D02*
D03*
X695840Y550065D02*
D03*
X699170Y546735D02*
D03*
X695840Y543405D02*
D03*
X692510Y546735D02*
D03*
X739130Y520095D02*
D03*
X735800Y516765D02*
D03*
X732470Y520095D02*
D03*
X725810D02*
D03*
X732470Y513435D02*
D03*
X729140Y516765D02*
D03*
X725810Y513435D02*
D03*
X729140Y510105D02*
D03*
X719150Y520095D02*
D03*
X722480Y516765D02*
D03*
X705830Y533415D02*
D03*
X709160Y530085D02*
D03*
X699170Y540075D02*
D03*
X702500Y536745D02*
D03*
X695840Y530085D02*
D03*
X692510Y533415D02*
D03*
X699170D02*
D03*
X695840Y536745D02*
D03*
X719150Y506775D02*
D03*
X722480Y503445D02*
D03*
Y510105D02*
D03*
X725810Y506775D02*
D03*
X705830Y526755D02*
D03*
X702500Y530085D02*
D03*
X712490Y520095D02*
D03*
X719150Y513435D02*
D03*
X715820Y516765D02*
D03*
X699170Y526755D02*
D03*
X702500Y523425D02*
D03*
X709160Y516765D02*
D03*
X705830Y520095D02*
D03*
X715820Y510105D02*
D03*
X712490Y513435D02*
D03*
X709160Y510105D02*
D03*
X712490Y506775D02*
D03*
X702500Y516765D02*
D03*
X705830Y513435D02*
D03*
X699170Y520095D02*
D03*
X695840Y523425D02*
D03*
X692510Y520095D02*
D03*
X695840Y516765D02*
D03*
X699170Y513435D02*
D03*
X702500Y510105D02*
D03*
X705830Y506775D02*
D03*
X709160Y503445D02*
D03*
D30*
X1124000Y559250D02*
D03*
X450060Y558685D02*
D03*
X747560Y558685D02*
D03*
D31*
X1171250Y188500D02*
D03*
D32*
X1088750D02*
D03*
X1253750D02*
D03*
D33*
X1281500Y1036750D02*
D03*
Y1079250D02*
D03*
X1301500Y1036750D02*
D03*
Y1079250D02*
D03*
X1321500Y1036750D02*
D03*
Y1079250D02*
D03*
X1341500Y1036750D02*
D03*
Y1079250D02*
D03*
X1361500Y1036750D02*
D03*
Y1079250D02*
D03*
X1381500Y1036750D02*
D03*
Y1079250D02*
D03*
X1401500Y1036750D02*
D03*
Y1079250D02*
D03*
D34*
X1592500Y810500D02*
D03*
X1612500D02*
D03*
X2225387Y681975D02*
D03*
X2205387D02*
D03*
X498610Y826945D02*
D03*
X478610D02*
D03*
X218542Y676515D02*
D03*
X198542D02*
D03*
X1979637Y440568D02*
D03*
X1999637D02*
D03*
X1431000Y798750D02*
D03*
X1411000D02*
D03*
X1536750Y667500D02*
D03*
X1556750D02*
D03*
X1431000Y996250D02*
D03*
X1411000D02*
D03*
X1431000Y601250D02*
D03*
X1411000D02*
D03*
X1536750Y470000D02*
D03*
X1556750D02*
D03*
X1431000Y403750D02*
D03*
X1411000D02*
D03*
X1135490Y899255D02*
D03*
X1155490Y899255D02*
D03*
D35*
X998290Y496664D02*
D03*
Y523564D02*
D03*
X966490D02*
D03*
Y496664D02*
D03*
X1198850Y684733D02*
D03*
Y657832D02*
D03*
X1230650D02*
D03*
Y684733D02*
D03*
D36*
X966490Y510114D02*
D03*
X1230650Y671283D02*
D03*
X1026296Y449970D02*
D03*
Y462670D02*
D03*
Y475370D02*
D03*
X994496D02*
D03*
Y462670D02*
D03*
Y449970D02*
D03*
X988458Y616733D02*
D03*
Y629433D02*
D03*
Y642133D02*
D03*
X956658Y642133D02*
D03*
X956658Y629433D02*
D03*
Y616733D02*
D03*
X329404Y632115D02*
D03*
X329404Y644815D02*
D03*
Y657515D02*
D03*
X297604D02*
D03*
Y644815D02*
D03*
Y632115D02*
D03*
X320764Y468365D02*
D03*
Y481065D02*
D03*
Y493765D02*
D03*
X352564D02*
D03*
Y481065D02*
D03*
Y468365D02*
D03*
D37*
X931750Y181750D02*
D03*
X2068750Y213250D02*
D03*
X289750Y883000D02*
D03*
D38*
X147708Y477160D02*
D03*
X147708Y795475D02*
D03*
X1306250Y668782D02*
D03*
X148685Y414000D02*
D03*
X114685D02*
D03*
D39*
X130708Y497160D02*
D03*
Y457160D02*
D03*
X130708Y815475D02*
D03*
Y775475D02*
D03*
X1323250Y648782D02*
D03*
Y688782D02*
D03*
X131685Y431000D02*
D03*
Y397000D02*
D03*
D40*
X112708Y477160D02*
D03*
X112708Y795475D02*
D03*
X1341250Y668782D02*
D03*
D41*
X114708Y477160D02*
D03*
X146708D02*
D03*
X114708Y795475D02*
D03*
X146708D02*
D03*
X1339250Y668782D02*
D03*
X1307250D02*
D03*
X115685Y414000D02*
D03*
X147684D02*
D03*
D42*
X130708Y463160D02*
D03*
Y491160D02*
D03*
X130708Y781475D02*
D03*
Y809475D02*
D03*
X1323250Y682782D02*
D03*
Y654782D02*
D03*
X131685Y400000D02*
D03*
Y428000D02*
D03*
D43*
X550215Y995792D02*
D03*
X558925Y291208D02*
D03*
X774735Y995792D02*
D03*
X662475Y995792D02*
D03*
X899500Y291000D02*
D03*
X1027500D02*
D03*
X835500Y291000D02*
D03*
X963500Y291000D02*
D03*
X649400Y291208D02*
D03*
X739875Y291206D02*
D03*
X1452167Y1091250D02*
D03*
Y1057250D02*
D03*
X1229500Y1091250D02*
D03*
Y1057250D02*
D03*
X1577000Y1057250D02*
D03*
X1577000Y1091250D02*
D03*
X1514583Y1091250D02*
D03*
Y1057250D02*
D03*
D44*
X570215Y1012792D02*
D03*
X530215D02*
D03*
X538925Y274208D02*
D03*
X578925D02*
D03*
X794735Y1012792D02*
D03*
X754735D02*
D03*
X682475Y1012792D02*
D03*
X642475D02*
D03*
X879500Y274000D02*
D03*
X919500D02*
D03*
X1007500D02*
D03*
X1047500D02*
D03*
X815500Y274000D02*
D03*
X855500D02*
D03*
X943500Y274000D02*
D03*
X983500D02*
D03*
X629400Y274208D02*
D03*
X669400D02*
D03*
X719875Y274205D02*
D03*
X759875D02*
D03*
X1435167Y1074250D02*
D03*
X1469167D02*
D03*
X1212500D02*
D03*
X1246500D02*
D03*
X1594000Y1074250D02*
D03*
X1560000Y1074250D02*
D03*
X1497583D02*
D03*
X1531583D02*
D03*
D45*
X550215Y1030792D02*
D03*
X558925Y256208D02*
D03*
X774735Y1030792D02*
D03*
X662475Y1030792D02*
D03*
X899500Y256000D02*
D03*
X1027500D02*
D03*
X835500Y256000D02*
D03*
X963500Y256000D02*
D03*
X649400Y256208D02*
D03*
X739875Y256206D02*
D03*
D46*
X550215Y1028792D02*
D03*
Y996792D02*
D03*
X558925Y258208D02*
D03*
Y290208D02*
D03*
X774735Y1028792D02*
D03*
Y996792D02*
D03*
X662475Y1028792D02*
D03*
Y996792D02*
D03*
X899500Y258000D02*
D03*
Y290000D02*
D03*
X1027500Y258000D02*
D03*
Y290000D02*
D03*
X835500Y258000D02*
D03*
Y290000D02*
D03*
X963500Y258000D02*
D03*
Y290000D02*
D03*
X649400Y258208D02*
D03*
Y290208D02*
D03*
X739875Y258206D02*
D03*
Y290205D02*
D03*
X1452167Y1058250D02*
D03*
Y1090250D02*
D03*
X1229500Y1058250D02*
D03*
Y1090250D02*
D03*
X1577000Y1090250D02*
D03*
Y1058250D02*
D03*
X1514583Y1058250D02*
D03*
Y1090250D02*
D03*
D47*
X536214Y1012792D02*
D03*
X564215D02*
D03*
X572925Y274208D02*
D03*
X544925D02*
D03*
X760735Y1012792D02*
D03*
X788735D02*
D03*
X648475Y1012792D02*
D03*
X676475D02*
D03*
X913500Y274000D02*
D03*
X885500D02*
D03*
X1041500D02*
D03*
X1013500D02*
D03*
X849500Y274000D02*
D03*
X821500D02*
D03*
X977500Y274000D02*
D03*
X949500D02*
D03*
X663400Y274208D02*
D03*
X635400D02*
D03*
X753875Y274205D02*
D03*
X725875D02*
D03*
X1466167Y1074250D02*
D03*
X1438167D02*
D03*
X1243500D02*
D03*
X1215500D02*
D03*
X1563000Y1074250D02*
D03*
X1591000Y1074250D02*
D03*
X1528583D02*
D03*
X1500583D02*
D03*
D48*
X1888390Y898100D02*
D03*
Y876100D02*
D03*
X1905390Y876100D02*
D03*
X1905390Y898100D02*
D03*
D49*
X1028438Y422663D02*
D03*
X1021367Y415592D02*
D03*
X1035509Y415592D02*
D03*
X1028438Y408521D02*
D03*
X1075092Y674165D02*
D03*
X1082163Y681236D02*
D03*
X1057750Y350000D02*
D03*
X1050679Y342929D02*
D03*
X1060243Y703157D02*
D03*
X1053172Y696086D02*
D03*
D50*
X1015077Y383209D02*
D03*
X996056Y402231D02*
D03*
X973569Y379745D02*
D03*
X992591Y360723D02*
D03*
D51*
X983080Y370234D02*
D03*
D52*
X1020660Y400743D02*
D03*
X1013589Y407814D02*
D03*
D53*
X2270270Y728270D02*
D03*
X2270270Y750270D02*
D03*
X2284770Y750270D02*
D03*
Y728270D02*
D03*
D54*
X739259Y724051D02*
D03*
X751960D02*
D03*
X764660D02*
D03*
Y755851D02*
D03*
X751960D02*
D03*
X739259D02*
D03*
X639900Y392548D02*
D03*
X808260Y755851D02*
D03*
X698500Y392548D02*
D03*
X685800D02*
D03*
X673100D02*
D03*
Y424348D02*
D03*
X685800D02*
D03*
X698500D02*
D03*
X1129270Y431346D02*
D03*
X1116570D02*
D03*
X1103870D02*
D03*
Y399546D02*
D03*
X1116570D02*
D03*
X1129270D02*
D03*
X452725Y437565D02*
D03*
X440025Y437565D02*
D03*
X427325D02*
D03*
X427325Y405765D02*
D03*
X440025D02*
D03*
X452725Y405765D02*
D03*
X732200Y392548D02*
D03*
X786400Y424344D02*
D03*
X773700D02*
D03*
X761000D02*
D03*
Y392544D02*
D03*
X773700D02*
D03*
X786400D02*
D03*
X626999Y724051D02*
D03*
X639699D02*
D03*
X652399D02*
D03*
Y755851D02*
D03*
X639699D02*
D03*
X626999D02*
D03*
X696000D02*
D03*
X424710Y733211D02*
D03*
X437410D02*
D03*
X450110D02*
D03*
Y701411D02*
D03*
X437410D02*
D03*
X424710D02*
D03*
D55*
X653350Y424348D02*
D03*
X626450D02*
D03*
Y392548D02*
D03*
X653350D02*
D03*
X794810Y724051D02*
D03*
X821710D02*
D03*
Y755851D02*
D03*
X794810D02*
D03*
X745650Y424348D02*
D03*
X718750D02*
D03*
Y392548D02*
D03*
X745650D02*
D03*
X682550Y724051D02*
D03*
X709450D02*
D03*
Y755851D02*
D03*
X682550D02*
D03*
D56*
X2277000Y705370D02*
D03*
X2258000Y679370D02*
D03*
X2267500D02*
D03*
X2277000D02*
D03*
X2258000Y705370D02*
D03*
X1592500Y624500D02*
D03*
X1611500Y598500D02*
D03*
X1602000D02*
D03*
X1592500D02*
D03*
X1611500Y624500D02*
D03*
X1602000D02*
D03*
D57*
X1977500Y888390D02*
D03*
X1984000D02*
D03*
X1990500D02*
D03*
Y913390D02*
D03*
X1984000D02*
D03*
X1977500D02*
D03*
X1997000D02*
D03*
X1997000Y888390D02*
D03*
X2141500Y787900D02*
D03*
X2135000Y787900D02*
D03*
X2128500Y787900D02*
D03*
X2128500Y762900D02*
D03*
X2135000D02*
D03*
X2141500D02*
D03*
X2122000D02*
D03*
Y787900D02*
D03*
D58*
X2182500Y734000D02*
D03*
X2205500Y743500D02*
D03*
Y724500D02*
D03*
X1604220Y309220D02*
D03*
X1630220Y328220D02*
D03*
Y318720D02*
D03*
Y309220D02*
D03*
X1604220Y328220D02*
D03*
Y318720D02*
D03*
D59*
X1999750Y991000D02*
D03*
Y1051000D02*
D03*
X2039750D02*
D03*
Y991000D02*
D03*
X1053300Y1097750D02*
D03*
X2305000Y1020680D02*
D03*
X437250Y191450D02*
D03*
X1805050Y151000D02*
D03*
X2305000Y941150D02*
D03*
X2283500Y391200D02*
D03*
D60*
X373990Y262910D02*
D03*
X373990Y254910D02*
D03*
X373990Y246910D02*
D03*
X373990Y238910D02*
D03*
X373990Y230910D02*
D03*
X373990Y222910D02*
D03*
X373990Y214910D02*
D03*
X373990Y206910D02*
D03*
Y198910D02*
D03*
Y190910D02*
D03*
X291990Y186910D02*
D03*
X291990Y194910D02*
D03*
Y202910D02*
D03*
Y210910D02*
D03*
Y218910D02*
D03*
Y226910D02*
D03*
X291990Y234910D02*
D03*
X291990Y242910D02*
D03*
X291990Y250910D02*
D03*
Y258910D02*
D03*
D61*
X831000Y301750D02*
D03*
X835500D02*
D03*
X899500Y301750D02*
D03*
X895000D02*
D03*
X550215Y985042D02*
D03*
X545714D02*
D03*
X558925Y301958D02*
D03*
X554425D02*
D03*
X1027500Y301750D02*
D03*
X1023000D02*
D03*
X739875Y301956D02*
D03*
X735375D02*
D03*
X774735Y984292D02*
D03*
X770235D02*
D03*
X649400Y302708D02*
D03*
X644900D02*
D03*
X963500Y301750D02*
D03*
X959000Y301750D02*
D03*
X662475Y984292D02*
D03*
X657975D02*
D03*
D62*
X686746Y931322D02*
D03*
X674725Y919301D02*
D03*
X786985D02*
D03*
X799006Y931322D02*
D03*
D63*
X684975Y852301D02*
D03*
X691475D02*
D03*
X697975D02*
D03*
X704475D02*
D03*
X710975D02*
D03*
Y901301D02*
D03*
X704475D02*
D03*
X697975D02*
D03*
X691475D02*
D03*
X684975D02*
D03*
X797235Y852301D02*
D03*
X803735D02*
D03*
X810235D02*
D03*
X816735D02*
D03*
X823235D02*
D03*
Y901301D02*
D03*
X816735D02*
D03*
X810235D02*
D03*
X803735D02*
D03*
X797235D02*
D03*
D64*
X722475Y863801D02*
D03*
Y870301D02*
D03*
Y876801D02*
D03*
Y883301D02*
D03*
Y889801D02*
D03*
X673475D02*
D03*
Y883301D02*
D03*
Y876801D02*
D03*
Y870301D02*
D03*
Y863801D02*
D03*
X834735D02*
D03*
Y870301D02*
D03*
Y876801D02*
D03*
Y883301D02*
D03*
Y889801D02*
D03*
X785735D02*
D03*
Y883301D02*
D03*
Y876801D02*
D03*
Y870301D02*
D03*
Y863801D02*
D03*
D65*
X697975Y876801D02*
D03*
X810235D02*
D03*
D66*
X1049000Y849750D02*
D03*
X1011000D02*
D03*
X1049000Y802250D02*
D03*
X1011000D02*
D03*
D67*
X1030000Y835000D02*
D03*
Y864500D02*
D03*
X1030000Y787500D02*
D03*
Y817000D02*
D03*
D68*
X242042Y717015D02*
D03*
Y710515D02*
D03*
Y704015D02*
D03*
X231542D02*
D03*
Y710515D02*
D03*
Y717015D02*
D03*
D69*
X498610Y865445D02*
D03*
X505110D02*
D03*
X511610D02*
D03*
Y875945D02*
D03*
X505110D02*
D03*
X498610D02*
D03*
D70*
X1294647Y668782D02*
D03*
Y664282D02*
D03*
X158458Y477160D02*
D03*
Y472660D02*
D03*
X158458Y795475D02*
D03*
Y799975D02*
D03*
D71*
X473360Y899695D02*
D03*
X459360D02*
D03*
X191542Y588265D02*
D03*
X205542Y588265D02*
D03*
D72*
X466360Y889195D02*
D03*
Y910195D02*
D03*
X198542Y598765D02*
D03*
Y577765D02*
D03*
D73*
X498610Y780695D02*
D03*
Y810695D02*
D03*
D74*
X496610Y795695D02*
D03*
D75*
X469610D02*
D03*
D76*
X220910Y478815D02*
D03*
Y473815D02*
D03*
Y468815D02*
D03*
Y463815D02*
D03*
X238910D02*
D03*
X238910Y468815D02*
D03*
Y473815D02*
D03*
Y478815D02*
D03*
X534768Y393507D02*
D03*
Y398507D02*
D03*
Y403507D02*
D03*
X534768Y408507D02*
D03*
X516768Y408507D02*
D03*
X516768Y403507D02*
D03*
Y398507D02*
D03*
Y393507D02*
D03*
D77*
X229910Y471315D02*
D03*
X525768Y401007D02*
D03*
D78*
X248542Y657515D02*
D03*
X218542D02*
D03*
D79*
X233542Y655515D02*
D03*
D80*
Y628515D02*
D03*
D81*
X2099429Y544071D02*
D03*
X2113571Y529929D02*
D03*
D82*
X1930000Y438750D02*
D03*
X1900000D02*
D03*
X1930000Y415500D02*
D03*
X1900000D02*
D03*
X1980500Y414750D02*
D03*
X2010500D02*
D03*
X1746761Y405545D02*
D03*
X1776761D02*
D03*
X1696261Y405545D02*
D03*
X1666261D02*
D03*
X1696261Y429545D02*
D03*
X1666261D02*
D03*
X1315750Y296750D02*
D03*
X1285750D02*
D03*
X1366250Y272750D02*
D03*
X1396250D02*
D03*
X1315750D02*
D03*
X1285750D02*
D03*
X2013000Y643006D02*
D03*
X1983000D02*
D03*
X2013000Y620500D02*
D03*
X1983000D02*
D03*
X2063500Y638000D02*
D03*
X2093500D02*
D03*
X2106500Y615750D02*
D03*
X2076500D02*
D03*
D83*
X2129750Y249250D02*
D03*
Y219250D02*
D03*
X2153000Y249250D02*
D03*
X2153000Y219250D02*
D03*
X2153750Y299750D02*
D03*
Y329750D02*
D03*
X1653500Y228250D02*
D03*
Y258250D02*
D03*
X1652750Y177750D02*
D03*
Y147750D02*
D03*
X1629500Y177750D02*
D03*
Y147750D02*
D03*
X2140000Y449750D02*
D03*
Y419750D02*
D03*
X2163250Y449750D02*
D03*
X2163250Y419750D02*
D03*
X2160500Y525750D02*
D03*
Y555750D02*
D03*
D84*
X2065000Y243750D02*
D03*
X2085000D02*
D03*
X2191500Y389000D02*
D03*
X2171500Y389000D02*
D03*
X2201750Y589500D02*
D03*
X2181750Y589500D02*
D03*
X2098500Y416250D02*
D03*
X2116500D02*
D03*
D85*
X1836011Y367795D02*
D03*
Y387795D02*
D03*
X1858000Y261750D02*
D03*
X1858000Y281750D02*
D03*
X1455500Y235000D02*
D03*
Y255000D02*
D03*
D86*
X1947000Y383750D02*
D03*
Y303250D02*
D03*
X1711511Y293295D02*
D03*
Y373795D02*
D03*
X2028000Y508000D02*
D03*
Y588500D02*
D03*
X1331250Y160750D02*
D03*
X1331250Y241250D02*
D03*
D87*
X1685000Y192750D02*
D03*
X1765500D02*
D03*
X2265750Y264750D02*
D03*
X2185250D02*
D03*
X2195500Y465500D02*
D03*
X2276000D02*
D03*
D88*
X1799500Y803500D02*
D03*
X1804500D02*
D03*
X1809500D02*
D03*
X1814500D02*
D03*
X1819500D02*
D03*
Y844500D02*
D03*
X1814500D02*
D03*
X1809500D02*
D03*
X1804500D02*
D03*
X1799500D02*
D03*
D89*
X1828500Y814000D02*
D03*
Y819000D02*
D03*
X1828500Y824000D02*
D03*
X1828500Y829000D02*
D03*
Y834000D02*
D03*
X1790500Y834000D02*
D03*
Y829000D02*
D03*
Y824000D02*
D03*
Y819000D02*
D03*
Y814000D02*
D03*
D90*
X1809500Y824000D02*
D03*
D91*
X1534500Y597000D02*
D03*
X1529500D02*
D03*
X1524500D02*
D03*
X1519500D02*
D03*
X1514500D02*
D03*
X1509500D02*
D03*
X1504500D02*
D03*
X1499500D02*
D03*
X1494500D02*
D03*
X1489500D02*
D03*
X1484500D02*
D03*
X1479500D02*
D03*
X1474500D02*
D03*
X1469500D02*
D03*
X1464500D02*
D03*
X1459500D02*
D03*
Y508000D02*
D03*
X1464500D02*
D03*
X1469500D02*
D03*
X1474500D02*
D03*
X1479500D02*
D03*
X1484500D02*
D03*
X1489500Y508000D02*
D03*
X1494500D02*
D03*
X1499500Y508000D02*
D03*
X1504500D02*
D03*
X1509500D02*
D03*
X1514500D02*
D03*
X1519500D02*
D03*
X1524500Y508000D02*
D03*
X1529500Y508000D02*
D03*
X1534500D02*
D03*
X1534500Y705500D02*
D03*
X1529500D02*
D03*
X1524500Y705500D02*
D03*
X1519500Y705500D02*
D03*
X1514500D02*
D03*
X1509500D02*
D03*
X1504500D02*
D03*
X1499500D02*
D03*
X1494500Y705500D02*
D03*
X1489500D02*
D03*
X1484500Y705500D02*
D03*
X1479500D02*
D03*
X1474500D02*
D03*
X1469500D02*
D03*
X1464500D02*
D03*
X1459500D02*
D03*
Y794500D02*
D03*
X1464500D02*
D03*
X1469500D02*
D03*
X1474500D02*
D03*
X1479500D02*
D03*
X1484500D02*
D03*
X1489500D02*
D03*
X1494500D02*
D03*
X1499500D02*
D03*
X1504500D02*
D03*
X1509500D02*
D03*
X1514500D02*
D03*
X1519500D02*
D03*
X1524500D02*
D03*
X1529500D02*
D03*
X1534500D02*
D03*
X1534500Y903000D02*
D03*
X1529500D02*
D03*
X1524500Y903000D02*
D03*
X1519500Y903000D02*
D03*
X1514500D02*
D03*
X1509500D02*
D03*
X1504500D02*
D03*
X1499500D02*
D03*
X1494500Y903000D02*
D03*
X1489500D02*
D03*
X1484500Y903000D02*
D03*
X1479500D02*
D03*
X1474500D02*
D03*
X1469500D02*
D03*
X1464500D02*
D03*
X1459500D02*
D03*
Y992000D02*
D03*
X1464500D02*
D03*
X1469500D02*
D03*
X1474500D02*
D03*
X1479500D02*
D03*
X1484500D02*
D03*
X1489500D02*
D03*
X1494500D02*
D03*
X1499500D02*
D03*
X1504500D02*
D03*
X1509500D02*
D03*
X1514500D02*
D03*
X1519500D02*
D03*
X1524500D02*
D03*
X1529500D02*
D03*
X1534500D02*
D03*
X1534500Y310500D02*
D03*
X1529500D02*
D03*
X1524500Y310500D02*
D03*
X1519500Y310500D02*
D03*
X1514500D02*
D03*
X1509500D02*
D03*
X1504500D02*
D03*
X1499500D02*
D03*
X1494500Y310500D02*
D03*
X1489500D02*
D03*
X1484500Y310500D02*
D03*
X1479500D02*
D03*
X1474500D02*
D03*
X1469500D02*
D03*
X1464500D02*
D03*
X1459500D02*
D03*
Y399500D02*
D03*
X1464500D02*
D03*
X1469500D02*
D03*
X1474500D02*
D03*
X1479500D02*
D03*
X1484500D02*
D03*
X1489500D02*
D03*
X1494500D02*
D03*
X1499500D02*
D03*
X1504500D02*
D03*
X1509500D02*
D03*
X1514500D02*
D03*
X1519500D02*
D03*
X1524500D02*
D03*
X1529500D02*
D03*
X1534500D02*
D03*
D92*
X1452500Y590000D02*
D03*
Y585000D02*
D03*
X1452500Y580000D02*
D03*
X1452500Y575000D02*
D03*
Y570000D02*
D03*
Y565000D02*
D03*
Y560000D02*
D03*
Y555000D02*
D03*
X1452500Y550000D02*
D03*
Y545000D02*
D03*
X1452500Y540000D02*
D03*
Y535000D02*
D03*
Y530000D02*
D03*
Y525000D02*
D03*
Y520000D02*
D03*
Y515000D02*
D03*
X1541500D02*
D03*
Y520000D02*
D03*
Y525000D02*
D03*
Y530000D02*
D03*
Y535000D02*
D03*
Y540000D02*
D03*
Y545000D02*
D03*
Y550000D02*
D03*
Y555000D02*
D03*
Y560000D02*
D03*
Y565000D02*
D03*
Y570000D02*
D03*
Y575000D02*
D03*
Y580000D02*
D03*
Y585000D02*
D03*
Y590000D02*
D03*
X1541500Y787500D02*
D03*
Y782500D02*
D03*
Y777500D02*
D03*
Y772500D02*
D03*
Y767500D02*
D03*
Y762500D02*
D03*
Y757500D02*
D03*
Y752500D02*
D03*
Y747500D02*
D03*
Y742500D02*
D03*
Y737500D02*
D03*
Y732500D02*
D03*
Y727500D02*
D03*
Y722500D02*
D03*
Y717500D02*
D03*
Y712500D02*
D03*
X1452500D02*
D03*
Y717500D02*
D03*
Y722500D02*
D03*
Y727500D02*
D03*
Y732500D02*
D03*
Y737500D02*
D03*
X1452500Y742500D02*
D03*
Y747500D02*
D03*
X1452500Y752500D02*
D03*
Y757500D02*
D03*
Y762500D02*
D03*
Y767500D02*
D03*
Y772500D02*
D03*
X1452500Y777500D02*
D03*
X1452500Y782500D02*
D03*
Y787500D02*
D03*
X1541500Y985000D02*
D03*
Y980000D02*
D03*
Y975000D02*
D03*
Y970000D02*
D03*
Y965000D02*
D03*
Y960000D02*
D03*
Y955000D02*
D03*
Y950000D02*
D03*
Y945000D02*
D03*
Y940000D02*
D03*
Y935000D02*
D03*
Y930000D02*
D03*
Y925000D02*
D03*
Y920000D02*
D03*
Y915000D02*
D03*
Y910000D02*
D03*
X1452500D02*
D03*
Y915000D02*
D03*
Y920000D02*
D03*
Y925000D02*
D03*
Y930000D02*
D03*
Y935000D02*
D03*
X1452500Y940000D02*
D03*
Y945000D02*
D03*
X1452500Y950000D02*
D03*
Y955000D02*
D03*
Y960000D02*
D03*
Y965000D02*
D03*
Y970000D02*
D03*
X1452500Y975000D02*
D03*
X1452500Y980000D02*
D03*
Y985000D02*
D03*
X1541500Y392500D02*
D03*
Y387500D02*
D03*
Y382500D02*
D03*
Y377500D02*
D03*
Y372500D02*
D03*
Y367500D02*
D03*
Y362500D02*
D03*
Y357500D02*
D03*
Y352500D02*
D03*
Y347500D02*
D03*
Y342500D02*
D03*
Y337500D02*
D03*
Y332500D02*
D03*
Y327500D02*
D03*
Y322500D02*
D03*
Y317500D02*
D03*
X1452500D02*
D03*
Y322500D02*
D03*
Y327500D02*
D03*
Y332500D02*
D03*
Y337500D02*
D03*
Y342500D02*
D03*
X1452500Y347500D02*
D03*
Y352500D02*
D03*
X1452500Y357500D02*
D03*
Y362500D02*
D03*
Y367500D02*
D03*
Y372500D02*
D03*
Y377500D02*
D03*
X1452500Y382500D02*
D03*
X1452500Y387500D02*
D03*
Y392500D02*
D03*
D93*
X1497000Y552500D02*
D03*
X1497000Y750000D02*
D03*
Y947500D02*
D03*
Y355000D02*
D03*
D94*
X2145250Y834850D02*
D03*
X2145250Y829250D02*
D03*
D95*
X1953750Y502750D02*
D03*
X1943750D02*
D03*
X1933750D02*
D03*
X1923750D02*
D03*
X1913750D02*
D03*
X1903750D02*
D03*
X1893750D02*
D03*
X1883750D02*
D03*
X1873750D02*
D03*
X1863750D02*
D03*
X1853750D02*
D03*
X1843750D02*
D03*
X1833750D02*
D03*
X1823750D02*
D03*
X1813750D02*
D03*
X1803750D02*
D03*
X1793750D02*
D03*
X1783750D02*
D03*
X1773750D02*
D03*
X1763750D02*
D03*
X1753750D02*
D03*
X1743750D02*
D03*
X1733750D02*
D03*
X1723750D02*
D03*
X1713750D02*
D03*
X1703750D02*
D03*
X1953750Y512750D02*
D03*
X1943750D02*
D03*
X1933750Y512750D02*
D03*
X1923750D02*
D03*
X1913750Y512750D02*
D03*
X1903750D02*
D03*
X1893750Y512750D02*
D03*
X1883750Y512750D02*
D03*
X1873750D02*
D03*
X1863750Y512750D02*
D03*
X1853750Y512750D02*
D03*
X1843750D02*
D03*
X1833750D02*
D03*
X1823750Y512750D02*
D03*
X1813750Y512750D02*
D03*
X1803750D02*
D03*
X1793750Y512750D02*
D03*
X1783750D02*
D03*
X1773750Y512750D02*
D03*
X1763750Y512750D02*
D03*
X1753750Y512750D02*
D03*
X1743750Y512750D02*
D03*
X1733750Y512750D02*
D03*
X1723750Y512750D02*
D03*
X1713750Y512750D02*
D03*
X1703750D02*
D03*
X1953750Y522750D02*
D03*
X1943750D02*
D03*
X1933750Y522750D02*
D03*
X1923750D02*
D03*
X1913750Y522750D02*
D03*
X1903750Y522750D02*
D03*
X1893750D02*
D03*
X1883750Y522750D02*
D03*
X1873750D02*
D03*
X1863750Y522750D02*
D03*
X1853750Y522750D02*
D03*
X1843750D02*
D03*
X1833750D02*
D03*
X1823750Y522750D02*
D03*
X1813750Y522750D02*
D03*
X1803750D02*
D03*
X1793750Y522750D02*
D03*
X1783750Y522750D02*
D03*
X1773750Y522750D02*
D03*
X1763750Y522750D02*
D03*
X1753750D02*
D03*
X1743750Y522750D02*
D03*
X1733750D02*
D03*
X1723750Y522750D02*
D03*
X1713750Y522750D02*
D03*
X1703750D02*
D03*
X1953750Y532750D02*
D03*
X1943750D02*
D03*
X1933750Y532750D02*
D03*
X1923750Y532750D02*
D03*
X1913750Y532750D02*
D03*
X1903750Y532750D02*
D03*
X1893750D02*
D03*
X1883750Y532750D02*
D03*
X1873750D02*
D03*
X1863750Y532750D02*
D03*
X1853750D02*
D03*
X1843750Y532750D02*
D03*
X1833750D02*
D03*
X1823750Y532750D02*
D03*
X1813750Y532750D02*
D03*
X1803750Y532750D02*
D03*
X1793750D02*
D03*
X1783750D02*
D03*
X1773750Y532750D02*
D03*
X1763750Y532750D02*
D03*
X1753750D02*
D03*
X1743750Y532750D02*
D03*
X1733750D02*
D03*
X1723750Y532750D02*
D03*
X1713750Y532750D02*
D03*
X1703750D02*
D03*
X1953750Y542750D02*
D03*
X1943750D02*
D03*
X1933750D02*
D03*
X1923750D02*
D03*
X1913750D02*
D03*
X1903750D02*
D03*
X1893750D02*
D03*
X1883750D02*
D03*
X1873750D02*
D03*
X1863750D02*
D03*
X1853750D02*
D03*
X1843750D02*
D03*
X1833750D02*
D03*
X1823750D02*
D03*
X1813750D02*
D03*
X1803750D02*
D03*
X1793750D02*
D03*
X1783750D02*
D03*
X1773750D02*
D03*
X1763750D02*
D03*
X1753750D02*
D03*
X1743750D02*
D03*
X1733750D02*
D03*
X1723750D02*
D03*
X1713750D02*
D03*
X1703750D02*
D03*
X1953750Y552750D02*
D03*
X1943750Y552750D02*
D03*
X1933750D02*
D03*
X1923750D02*
D03*
X1913750D02*
D03*
X1903750D02*
D03*
X1893750D02*
D03*
X1883750D02*
D03*
X1873750D02*
D03*
X1863750D02*
D03*
X1853750D02*
D03*
X1843750D02*
D03*
X1833750D02*
D03*
X1823750D02*
D03*
X1813750D02*
D03*
X1803750D02*
D03*
X1793750D02*
D03*
X1783750D02*
D03*
X1773750D02*
D03*
X1763750D02*
D03*
X1753750D02*
D03*
X1743750D02*
D03*
X1733750D02*
D03*
X1723750D02*
D03*
X1713750Y552750D02*
D03*
X1703750Y552750D02*
D03*
X1953750Y562750D02*
D03*
X1943750D02*
D03*
X1933750D02*
D03*
X1923750D02*
D03*
X1913750Y562750D02*
D03*
X1903750Y562750D02*
D03*
X1893750D02*
D03*
X1883750Y562750D02*
D03*
X1873750D02*
D03*
X1863750Y562750D02*
D03*
X1853750D02*
D03*
X1843750Y562750D02*
D03*
X1833750Y562750D02*
D03*
X1823750D02*
D03*
X1813750Y562750D02*
D03*
X1803750Y562750D02*
D03*
X1793750D02*
D03*
X1783750D02*
D03*
X1773750Y562750D02*
D03*
X1763750Y562750D02*
D03*
X1753750D02*
D03*
X1743750Y562750D02*
D03*
X1733750D02*
D03*
X1723750Y562750D02*
D03*
X1713750D02*
D03*
X1703750D02*
D03*
X1953750Y572750D02*
D03*
X1943750D02*
D03*
X1933750Y572750D02*
D03*
X1923750D02*
D03*
X1913750Y572750D02*
D03*
X1903750Y572750D02*
D03*
X1893750D02*
D03*
X1883750Y572750D02*
D03*
X1873750D02*
D03*
X1863750Y572750D02*
D03*
X1853750D02*
D03*
X1843750Y572750D02*
D03*
X1833750Y572750D02*
D03*
X1823750Y572750D02*
D03*
X1813750Y572750D02*
D03*
X1803750Y572750D02*
D03*
X1793750D02*
D03*
X1783750D02*
D03*
X1773750Y572750D02*
D03*
X1763750Y572750D02*
D03*
X1753750D02*
D03*
X1743750Y572750D02*
D03*
X1733750D02*
D03*
X1723750Y572750D02*
D03*
X1713750Y572750D02*
D03*
X1703750D02*
D03*
X1953750Y582750D02*
D03*
X1943750D02*
D03*
X1933750Y582750D02*
D03*
X1923750D02*
D03*
X1913750Y582750D02*
D03*
X1903750Y582750D02*
D03*
X1893750D02*
D03*
X1883750Y582750D02*
D03*
X1873750D02*
D03*
X1863750Y582750D02*
D03*
X1853750Y582750D02*
D03*
X1843750D02*
D03*
X1833750D02*
D03*
X1823750Y582750D02*
D03*
X1813750Y582750D02*
D03*
X1803750D02*
D03*
X1793750Y582750D02*
D03*
X1783750D02*
D03*
X1773750Y582750D02*
D03*
X1763750Y582750D02*
D03*
X1753750D02*
D03*
X1743750Y582750D02*
D03*
X1733750Y582750D02*
D03*
X1723750Y582750D02*
D03*
X1713750Y582750D02*
D03*
X1703750D02*
D03*
X1953750Y592750D02*
D03*
X1943750D02*
D03*
X1933750D02*
D03*
X1923750D02*
D03*
X1913750D02*
D03*
X1903750D02*
D03*
X1893750D02*
D03*
X1883750D02*
D03*
X1873750D02*
D03*
X1863750D02*
D03*
X1853750D02*
D03*
X1843750D02*
D03*
X1833750D02*
D03*
X1823750D02*
D03*
X1813750D02*
D03*
X1803750D02*
D03*
X1793750D02*
D03*
X1783750D02*
D03*
X1773750D02*
D03*
X1763750D02*
D03*
X1753750D02*
D03*
X1743750D02*
D03*
X1733750D02*
D03*
X1723750D02*
D03*
X1713750D02*
D03*
X1703750D02*
D03*
X1953750Y602750D02*
D03*
X1943750D02*
D03*
X1933750D02*
D03*
X1923750D02*
D03*
X1913750D02*
D03*
X1903750Y602750D02*
D03*
X1893750Y602750D02*
D03*
X1883750D02*
D03*
X1873750D02*
D03*
X1863750D02*
D03*
X1853750D02*
D03*
X1843750D02*
D03*
X1833750D02*
D03*
X1823750D02*
D03*
X1813750D02*
D03*
X1803750D02*
D03*
X1793750D02*
D03*
X1783750D02*
D03*
X1773750D02*
D03*
X1763750Y602750D02*
D03*
X1753750D02*
D03*
X1743750Y602750D02*
D03*
X1733750D02*
D03*
X1723750D02*
D03*
X1713750D02*
D03*
X1703750D02*
D03*
X1953750Y612750D02*
D03*
X1943750D02*
D03*
X1933750Y612750D02*
D03*
X1923750D02*
D03*
X1913750Y612750D02*
D03*
X1903750D02*
D03*
X1893750Y612750D02*
D03*
X1883750Y612750D02*
D03*
X1873750D02*
D03*
X1863750Y612750D02*
D03*
X1853750Y612750D02*
D03*
X1843750D02*
D03*
X1833750D02*
D03*
X1823750Y612750D02*
D03*
X1813750Y612750D02*
D03*
X1803750D02*
D03*
X1793750Y612750D02*
D03*
X1783750D02*
D03*
X1773750Y612750D02*
D03*
X1763750Y612750D02*
D03*
X1753750Y612750D02*
D03*
X1743750D02*
D03*
X1733750D02*
D03*
X1723750Y612750D02*
D03*
X1713750Y612750D02*
D03*
X1703750D02*
D03*
X1953750Y622750D02*
D03*
X1943750D02*
D03*
X1933750Y622750D02*
D03*
X1923750D02*
D03*
X1913750Y622750D02*
D03*
X1903750D02*
D03*
X1893750Y622750D02*
D03*
X1883750Y622750D02*
D03*
X1873750D02*
D03*
X1863750Y622750D02*
D03*
X1853750Y622750D02*
D03*
X1843750D02*
D03*
X1833750D02*
D03*
X1823750Y622750D02*
D03*
X1813750Y622750D02*
D03*
X1803750D02*
D03*
X1793750Y622750D02*
D03*
X1783750D02*
D03*
X1773750Y622750D02*
D03*
X1763750Y622750D02*
D03*
X1753750Y622750D02*
D03*
X1743750Y622750D02*
D03*
X1733750Y622750D02*
D03*
X1723750Y622750D02*
D03*
X1713750Y622750D02*
D03*
X1703750D02*
D03*
X1953750Y632750D02*
D03*
X1943750D02*
D03*
X1933750Y632750D02*
D03*
X1923750D02*
D03*
X1913750Y632750D02*
D03*
X1903750Y632750D02*
D03*
X1893750D02*
D03*
X1883750Y632750D02*
D03*
X1873750D02*
D03*
X1863750Y632750D02*
D03*
X1853750Y632750D02*
D03*
X1843750D02*
D03*
X1833750D02*
D03*
X1823750Y632750D02*
D03*
X1813750Y632750D02*
D03*
X1803750D02*
D03*
X1793750Y632750D02*
D03*
X1783750Y632750D02*
D03*
X1773750Y632750D02*
D03*
X1763750Y632750D02*
D03*
X1753750D02*
D03*
X1743750Y632750D02*
D03*
X1733750D02*
D03*
X1723750Y632750D02*
D03*
X1713750Y632750D02*
D03*
X1703750D02*
D03*
X1953750Y642750D02*
D03*
X1943750D02*
D03*
X1933750D02*
D03*
X1923750D02*
D03*
X1913750D02*
D03*
X1903750D02*
D03*
X1893750D02*
D03*
X1883750D02*
D03*
X1873750D02*
D03*
X1863750D02*
D03*
X1853750D02*
D03*
X1843750D02*
D03*
X1833750D02*
D03*
X1823750D02*
D03*
X1813750D02*
D03*
X1803750D02*
D03*
X1793750D02*
D03*
X1783750D02*
D03*
X1773750D02*
D03*
X1763750D02*
D03*
X1753750D02*
D03*
X1743750D02*
D03*
X1733750D02*
D03*
X1723750D02*
D03*
X1713750D02*
D03*
X1703750D02*
D03*
X1953750Y652750D02*
D03*
X1943750D02*
D03*
X1933750Y652750D02*
D03*
X1923750D02*
D03*
X1913750Y652750D02*
D03*
X1903750Y652750D02*
D03*
X1893750D02*
D03*
X1883750Y652750D02*
D03*
X1873750D02*
D03*
X1863750Y652750D02*
D03*
X1853750Y652750D02*
D03*
X1843750Y652750D02*
D03*
X1833750Y652750D02*
D03*
X1823750Y652750D02*
D03*
X1813750Y652750D02*
D03*
X1803750D02*
D03*
X1793750Y652750D02*
D03*
X1783750D02*
D03*
X1773750Y652750D02*
D03*
X1763750Y652750D02*
D03*
X1753750D02*
D03*
X1743750Y652750D02*
D03*
X1733750D02*
D03*
X1723750Y652750D02*
D03*
X1713750Y652750D02*
D03*
X1703750D02*
D03*
X1953750Y662750D02*
D03*
X1943750D02*
D03*
X1933750Y662750D02*
D03*
X1923750Y662750D02*
D03*
X1913750Y662750D02*
D03*
X1903750Y662750D02*
D03*
X1893750D02*
D03*
X1883750Y662750D02*
D03*
X1873750D02*
D03*
X1863750Y662750D02*
D03*
X1853750D02*
D03*
X1843750Y662750D02*
D03*
X1833750D02*
D03*
X1823750Y662750D02*
D03*
X1813750Y662750D02*
D03*
X1803750Y662750D02*
D03*
X1793750D02*
D03*
X1783750D02*
D03*
X1773750Y662750D02*
D03*
X1763750Y662750D02*
D03*
X1753750D02*
D03*
X1743750Y662750D02*
D03*
X1733750D02*
D03*
X1723750Y662750D02*
D03*
X1713750Y662750D02*
D03*
X1703750D02*
D03*
X1953750Y672750D02*
D03*
X1943750D02*
D03*
X1933750Y672750D02*
D03*
X1923750Y672750D02*
D03*
X1913750Y672750D02*
D03*
X1903750Y672750D02*
D03*
X1893750D02*
D03*
X1883750Y672750D02*
D03*
X1873750D02*
D03*
X1863750Y672750D02*
D03*
X1853750D02*
D03*
X1843750Y672750D02*
D03*
X1833750Y672750D02*
D03*
X1823750Y672750D02*
D03*
X1813750Y672750D02*
D03*
X1803750Y672750D02*
D03*
X1793750D02*
D03*
X1783750D02*
D03*
X1773750Y672750D02*
D03*
X1763750Y672750D02*
D03*
X1753750D02*
D03*
X1743750Y672750D02*
D03*
X1733750D02*
D03*
X1723750Y672750D02*
D03*
X1713750D02*
D03*
X1703750D02*
D03*
X1953750Y682750D02*
D03*
X1943750D02*
D03*
X1933750Y682750D02*
D03*
X1923750D02*
D03*
X1913750Y682750D02*
D03*
X1903750Y682750D02*
D03*
X1893750D02*
D03*
X1883750Y682750D02*
D03*
X1873750D02*
D03*
X1863750Y682750D02*
D03*
X1853750D02*
D03*
X1843750Y682750D02*
D03*
X1833750Y682750D02*
D03*
X1823750Y682750D02*
D03*
X1813750Y682750D02*
D03*
X1803750Y682750D02*
D03*
X1793750D02*
D03*
X1783750D02*
D03*
X1773750Y682750D02*
D03*
X1763750Y682750D02*
D03*
X1753750D02*
D03*
X1743750Y682750D02*
D03*
X1733750D02*
D03*
X1723750Y682750D02*
D03*
X1713750Y682750D02*
D03*
X1703750D02*
D03*
X1953750Y692750D02*
D03*
X1943750D02*
D03*
X1933750D02*
D03*
X1923750D02*
D03*
X1913750D02*
D03*
X1903750D02*
D03*
X1893750D02*
D03*
X1883750D02*
D03*
X1873750D02*
D03*
X1863750D02*
D03*
X1853750D02*
D03*
X1843750D02*
D03*
X1833750D02*
D03*
X1823750D02*
D03*
X1813750D02*
D03*
X1803750D02*
D03*
X1793750D02*
D03*
X1783750D02*
D03*
X1773750D02*
D03*
X1763750D02*
D03*
X1753750D02*
D03*
X1743750D02*
D03*
X1733750D02*
D03*
X1723750D02*
D03*
X1713750D02*
D03*
X1703750D02*
D03*
X1953750Y702750D02*
D03*
X1943750D02*
D03*
X1933750Y702750D02*
D03*
X1923750D02*
D03*
X1913750Y702750D02*
D03*
X1903750Y702750D02*
D03*
X1893750D02*
D03*
X1883750Y702750D02*
D03*
X1873750D02*
D03*
X1863750Y702750D02*
D03*
X1853750D02*
D03*
X1843750Y702750D02*
D03*
X1833750D02*
D03*
X1823750Y702750D02*
D03*
X1813750Y702750D02*
D03*
X1803750Y702750D02*
D03*
X1793750Y702750D02*
D03*
X1783750Y702750D02*
D03*
X1773750Y702750D02*
D03*
X1763750Y702750D02*
D03*
X1753750D02*
D03*
X1743750Y702750D02*
D03*
X1733750D02*
D03*
X1723750Y702750D02*
D03*
X1713750Y702750D02*
D03*
X1703750D02*
D03*
X1953750Y712750D02*
D03*
X1943750D02*
D03*
X1933750Y712750D02*
D03*
X1923750D02*
D03*
X1913750Y712750D02*
D03*
X1903750Y712750D02*
D03*
X1893750D02*
D03*
X1883750Y712750D02*
D03*
X1873750D02*
D03*
X1863750Y712750D02*
D03*
X1853750Y712750D02*
D03*
X1843750D02*
D03*
X1833750D02*
D03*
X1823750Y712750D02*
D03*
X1813750Y712750D02*
D03*
X1803750D02*
D03*
X1793750Y712750D02*
D03*
X1783750D02*
D03*
X1773750Y712750D02*
D03*
X1763750Y712750D02*
D03*
X1753750D02*
D03*
X1743750Y712750D02*
D03*
X1733750Y712750D02*
D03*
X1723750Y712750D02*
D03*
X1713750Y712750D02*
D03*
X1703750D02*
D03*
X1953750Y722750D02*
D03*
X1943750D02*
D03*
X1933750Y722750D02*
D03*
X1923750D02*
D03*
X1913750Y722750D02*
D03*
X1903750D02*
D03*
X1893750Y722750D02*
D03*
X1883750Y722750D02*
D03*
X1873750D02*
D03*
X1863750Y722750D02*
D03*
X1853750Y722750D02*
D03*
X1843750D02*
D03*
X1833750D02*
D03*
X1823750Y722750D02*
D03*
X1813750Y722750D02*
D03*
X1803750D02*
D03*
X1793750Y722750D02*
D03*
X1783750D02*
D03*
X1773750Y722750D02*
D03*
X1763750Y722750D02*
D03*
X1753750Y722750D02*
D03*
X1743750D02*
D03*
X1733750D02*
D03*
X1723750Y722750D02*
D03*
X1713750Y722750D02*
D03*
X1703750D02*
D03*
X1953750Y732750D02*
D03*
X1943750D02*
D03*
X1933750Y732750D02*
D03*
X1923750D02*
D03*
X1913750Y732750D02*
D03*
X1903750D02*
D03*
X1893750Y732750D02*
D03*
X1883750Y732750D02*
D03*
X1873750D02*
D03*
X1863750Y732750D02*
D03*
X1853750Y732750D02*
D03*
X1843750D02*
D03*
X1833750D02*
D03*
X1823750Y732750D02*
D03*
X1813750Y732750D02*
D03*
X1803750D02*
D03*
X1793750Y732750D02*
D03*
X1783750D02*
D03*
X1773750Y732750D02*
D03*
X1763750Y732750D02*
D03*
X1753750Y732750D02*
D03*
X1743750D02*
D03*
X1733750D02*
D03*
X1723750Y732750D02*
D03*
X1713750Y732750D02*
D03*
X1703750D02*
D03*
X1953750Y742750D02*
D03*
X1943750D02*
D03*
X1933750D02*
D03*
X1923750D02*
D03*
X1913750D02*
D03*
X1903750D02*
D03*
X1893750D02*
D03*
X1883750D02*
D03*
X1873750D02*
D03*
X1863750D02*
D03*
X1853750D02*
D03*
X1843750D02*
D03*
X1833750D02*
D03*
X1823750D02*
D03*
X1813750D02*
D03*
X1803750D02*
D03*
X1793750D02*
D03*
X1783750D02*
D03*
X1773750D02*
D03*
X1763750D02*
D03*
X1753750D02*
D03*
X1743750D02*
D03*
X1733750D02*
D03*
X1723750D02*
D03*
X1713750D02*
D03*
X1703750D02*
D03*
X1953750Y752750D02*
D03*
X1943750D02*
D03*
X1933750Y752750D02*
D03*
X1923750D02*
D03*
X1913750Y752750D02*
D03*
X1903750D02*
D03*
X1893750Y752750D02*
D03*
X1883750Y752750D02*
D03*
X1873750D02*
D03*
X1863750Y752750D02*
D03*
X1853750Y752750D02*
D03*
X1843750D02*
D03*
X1833750D02*
D03*
X1823750Y752750D02*
D03*
X1813750Y752750D02*
D03*
X1803750D02*
D03*
X1793750Y752750D02*
D03*
X1783750D02*
D03*
X1773750Y752750D02*
D03*
X1763750Y752750D02*
D03*
X1753750Y752750D02*
D03*
X1743750Y752750D02*
D03*
X1733750Y752750D02*
D03*
X1723750Y752750D02*
D03*
X1713750Y752750D02*
D03*
X1703750D02*
D03*
X1291500Y1058000D02*
D03*
X1391500D02*
D03*
D96*
X1082517Y666741D02*
D03*
X1075446Y659670D02*
D03*
X1089588Y673812D02*
D03*
X1096659Y680883D02*
D03*
D97*
X1053837Y678225D02*
D03*
X1065857Y666204D02*
D03*
X1078104Y702492D02*
D03*
X1090125Y690471D02*
D03*
D98*
X1013927Y724441D02*
D03*
X1022908Y733421D02*
D03*
X1031888Y742401D02*
D03*
X1054374Y719915D02*
D03*
X1045394Y710935D02*
D03*
X1036413Y701955D02*
D03*
D99*
X672475Y781601D02*
D03*
X667475D02*
D03*
X662475D02*
D03*
Y801601D02*
D03*
X667475D02*
D03*
X672475D02*
D03*
X734875Y351446D02*
D03*
X739875D02*
D03*
X744875D02*
D03*
Y371446D02*
D03*
X739875D02*
D03*
X734875D02*
D03*
X784735Y781601D02*
D03*
X779735D02*
D03*
X774735D02*
D03*
Y801601D02*
D03*
X779735D02*
D03*
X784735D02*
D03*
X644400Y352198D02*
D03*
X649400D02*
D03*
X654400D02*
D03*
Y372198D02*
D03*
X649400D02*
D03*
X644400D02*
D03*
X1057750Y385750D02*
D03*
X1062750D02*
D03*
X1067750D02*
D03*
Y365750D02*
D03*
X1062750D02*
D03*
X1057750D02*
D03*
X476268Y383257D02*
D03*
X471268D02*
D03*
X466268D02*
D03*
Y363257D02*
D03*
X471268D02*
D03*
X476268D02*
D03*
X562089Y350686D02*
D03*
X557089D02*
D03*
X552089D02*
D03*
X552089Y370686D02*
D03*
X557089D02*
D03*
X562089D02*
D03*
X269660Y484066D02*
D03*
X274660D02*
D03*
X279660D02*
D03*
Y504066D02*
D03*
X274660D02*
D03*
X269660D02*
D03*
X200160Y523315D02*
D03*
X205160D02*
D03*
X210160D02*
D03*
Y503315D02*
D03*
X205160D02*
D03*
X200160D02*
D03*
X941396Y465370D02*
D03*
X946396D02*
D03*
X951396D02*
D03*
Y485370D02*
D03*
X946396D02*
D03*
X941396D02*
D03*
X267292Y707015D02*
D03*
X262292D02*
D03*
X257292D02*
D03*
Y727015D02*
D03*
X262292D02*
D03*
X267292D02*
D03*
X285042Y782894D02*
D03*
X280042D02*
D03*
X275042D02*
D03*
X275042Y762894D02*
D03*
X280042D02*
D03*
X285042Y762894D02*
D03*
X493610Y906695D02*
D03*
X498610D02*
D03*
X503610D02*
D03*
Y886695D02*
D03*
X498610D02*
D03*
X493610D02*
D03*
X555110Y906695D02*
D03*
X550110D02*
D03*
X545110D02*
D03*
Y886695D02*
D03*
X550110D02*
D03*
X555110D02*
D03*
D100*
X657475Y786601D02*
D03*
Y791601D02*
D03*
Y796601D02*
D03*
X677475D02*
D03*
Y791601D02*
D03*
Y786601D02*
D03*
X729875Y366446D02*
D03*
Y361446D02*
D03*
Y356446D02*
D03*
X749875D02*
D03*
Y361446D02*
D03*
Y366446D02*
D03*
X769735Y786601D02*
D03*
Y791601D02*
D03*
Y796601D02*
D03*
X789735D02*
D03*
Y791601D02*
D03*
Y786601D02*
D03*
X639400Y367198D02*
D03*
Y362198D02*
D03*
Y357198D02*
D03*
X659400D02*
D03*
Y362198D02*
D03*
Y367198D02*
D03*
X1052750Y370750D02*
D03*
Y375750D02*
D03*
Y380750D02*
D03*
X1072750D02*
D03*
Y375750D02*
D03*
Y370750D02*
D03*
X461268Y378257D02*
D03*
Y373257D02*
D03*
Y368257D02*
D03*
X481268D02*
D03*
Y373257D02*
D03*
Y378257D02*
D03*
X547089Y355686D02*
D03*
Y360686D02*
D03*
Y365686D02*
D03*
X567089Y365686D02*
D03*
Y360686D02*
D03*
Y355686D02*
D03*
X284660Y489066D02*
D03*
Y494066D02*
D03*
Y499065D02*
D03*
X264660D02*
D03*
Y494066D02*
D03*
Y489066D02*
D03*
X215160Y518315D02*
D03*
Y513315D02*
D03*
Y508315D02*
D03*
X195160D02*
D03*
Y513315D02*
D03*
Y518315D02*
D03*
X956396Y470370D02*
D03*
Y475370D02*
D03*
Y480370D02*
D03*
X936396D02*
D03*
Y475370D02*
D03*
Y470370D02*
D03*
X272292Y722015D02*
D03*
Y717015D02*
D03*
Y712015D02*
D03*
X252292D02*
D03*
Y717015D02*
D03*
Y722015D02*
D03*
X290042Y767894D02*
D03*
Y772894D02*
D03*
Y777894D02*
D03*
X270042D02*
D03*
X270042Y772894D02*
D03*
Y767894D02*
D03*
X508610Y901695D02*
D03*
Y896695D02*
D03*
Y891695D02*
D03*
X488610D02*
D03*
Y896695D02*
D03*
Y901695D02*
D03*
X560110Y891695D02*
D03*
Y896695D02*
D03*
Y901695D02*
D03*
X540110D02*
D03*
Y896695D02*
D03*
Y891695D02*
D03*
D101*
X667475Y791601D02*
D03*
X739875Y361446D02*
D03*
X779735Y791601D02*
D03*
X649400Y362198D02*
D03*
X557089Y360686D02*
D03*
X205160Y513315D02*
D03*
X280042Y772894D02*
D03*
X498610Y896695D02*
D03*
X550110Y896695D02*
D03*
D102*
X1062750Y375750D02*
D03*
X471268Y373257D02*
D03*
X274660Y494066D02*
D03*
X946396Y475370D02*
D03*
X262292Y717015D02*
D03*
D103*
X2071500Y456250D02*
D03*
X2066500D02*
D03*
X2061500D02*
D03*
X2056500D02*
D03*
X2051500D02*
D03*
X2046500D02*
D03*
Y416250D02*
D03*
X2051500D02*
D03*
X2056500D02*
D03*
X2061500D02*
D03*
X2066500D02*
D03*
X2071500D02*
D03*
X2227750Y591250D02*
D03*
X2232750D02*
D03*
X2237750D02*
D03*
X2242750D02*
D03*
X2247750D02*
D03*
X2252750D02*
D03*
Y551250D02*
D03*
X2247750D02*
D03*
X2242750D02*
D03*
X2237750D02*
D03*
X2232750D02*
D03*
X2227750D02*
D03*
X1424750Y176500D02*
D03*
X1429750D02*
D03*
X1434750D02*
D03*
X1439750D02*
D03*
X1444750D02*
D03*
X1449750D02*
D03*
Y216500D02*
D03*
X1444750D02*
D03*
X1439750D02*
D03*
X1434750D02*
D03*
X1429750D02*
D03*
X1424750D02*
D03*
X1805261Y349295D02*
D03*
X1810261D02*
D03*
X1815261D02*
D03*
X1820261D02*
D03*
X1825261D02*
D03*
X1830261D02*
D03*
Y309295D02*
D03*
X1825261D02*
D03*
X1820261D02*
D03*
X1815261D02*
D03*
X1810261D02*
D03*
X1805261D02*
D03*
X2038000Y291750D02*
D03*
X2033000D02*
D03*
X2028000D02*
D03*
X2023000D02*
D03*
X2018000D02*
D03*
X2013000D02*
D03*
Y251750D02*
D03*
X2018000D02*
D03*
X2023000D02*
D03*
X2028000D02*
D03*
X2033000D02*
D03*
X2038000D02*
D03*
X2217500Y390750D02*
D03*
X2222500D02*
D03*
X2227500D02*
D03*
X2232500D02*
D03*
X2237500D02*
D03*
X2242500D02*
D03*
Y350750D02*
D03*
X2237500D02*
D03*
X2232500D02*
D03*
X2227500D02*
D03*
X2222500D02*
D03*
X2217500D02*
D03*
X1827250Y203250D02*
D03*
X1832250D02*
D03*
X1837250D02*
D03*
X1842250D02*
D03*
X1847250D02*
D03*
X1852250D02*
D03*
Y243250D02*
D03*
X1847250D02*
D03*
X1842250D02*
D03*
X1837250D02*
D03*
X1832250D02*
D03*
X1827250D02*
D03*
D104*
X2039000Y448750D02*
D03*
Y443750D02*
D03*
Y438750D02*
D03*
Y433750D02*
D03*
Y428750D02*
D03*
Y423750D02*
D03*
X2079000D02*
D03*
Y428750D02*
D03*
Y433750D02*
D03*
Y438750D02*
D03*
Y443750D02*
D03*
Y448750D02*
D03*
X2220250Y558750D02*
D03*
Y563750D02*
D03*
Y568750D02*
D03*
Y573750D02*
D03*
Y578750D02*
D03*
Y583750D02*
D03*
X2260250D02*
D03*
Y578750D02*
D03*
Y573750D02*
D03*
Y568750D02*
D03*
Y563750D02*
D03*
Y558750D02*
D03*
X1417250Y209000D02*
D03*
Y204000D02*
D03*
Y199000D02*
D03*
Y194000D02*
D03*
Y189000D02*
D03*
Y184000D02*
D03*
X1457250D02*
D03*
Y189000D02*
D03*
Y194000D02*
D03*
Y199000D02*
D03*
Y204000D02*
D03*
Y209000D02*
D03*
X1837761Y341795D02*
D03*
Y336795D02*
D03*
Y331795D02*
D03*
Y326795D02*
D03*
Y321795D02*
D03*
Y316795D02*
D03*
X1797761D02*
D03*
Y321795D02*
D03*
Y326795D02*
D03*
Y331795D02*
D03*
Y336795D02*
D03*
Y341795D02*
D03*
X2005500Y284250D02*
D03*
Y279250D02*
D03*
Y274250D02*
D03*
Y269250D02*
D03*
Y264250D02*
D03*
Y259250D02*
D03*
X2045500D02*
D03*
Y264250D02*
D03*
Y269250D02*
D03*
Y274250D02*
D03*
Y279250D02*
D03*
Y284250D02*
D03*
X2210000Y358250D02*
D03*
Y363250D02*
D03*
Y368250D02*
D03*
Y373250D02*
D03*
Y378250D02*
D03*
Y383250D02*
D03*
X2250000D02*
D03*
Y378250D02*
D03*
Y373250D02*
D03*
Y368250D02*
D03*
Y363250D02*
D03*
Y358250D02*
D03*
X1819750Y235750D02*
D03*
Y230750D02*
D03*
Y225750D02*
D03*
Y220750D02*
D03*
Y215750D02*
D03*
Y210750D02*
D03*
X1859750D02*
D03*
Y215750D02*
D03*
Y220750D02*
D03*
Y225750D02*
D03*
Y230750D02*
D03*
Y235750D02*
D03*
D105*
X2065000Y436250D02*
D03*
X2234250Y571250D02*
D03*
X2031500Y271750D02*
D03*
X2224000Y370750D02*
D03*
D106*
X2050500Y436250D02*
D03*
X2248750Y571250D02*
D03*
X2017000Y271750D02*
D03*
X2238500Y370750D02*
D03*
D107*
X1437250Y202500D02*
D03*
X1817761Y335295D02*
D03*
X1839750Y229250D02*
D03*
D108*
X1437250Y188000D02*
D03*
X1817761Y320795D02*
D03*
X1839750Y214750D02*
D03*
D109*
X1338464Y444406D02*
D03*
X1308964D02*
D03*
X1385214D02*
D03*
X1355714D02*
D03*
D110*
X1323714Y463406D02*
D03*
Y425406D02*
D03*
X1370464Y463406D02*
D03*
Y425406D02*
D03*
D227*
X2188000Y774500D02*
D03*
X1788750Y948250D02*
D03*
X1284000Y631750D02*
D03*
X1206000Y381750D02*
D03*
X1202000Y295750D02*
D03*
X592000Y581250D02*
D03*
X1022250Y923000D02*
D03*
X1732500Y428750D02*
D03*
X1629750Y223250D02*
D03*
X2160000Y489750D02*
D03*
X2040250Y628000D02*
D03*
X1958250Y439500D02*
D03*
X2129000Y290750D02*
D03*
X1361000Y295250D02*
D03*
X394990Y272910D02*
D03*
X251990Y296160D02*
D03*
X298990D02*
D03*
X348990D02*
D03*
X394990Y224910D02*
D03*
Y176910D02*
D03*
X348990Y153660D02*
D03*
X298990D02*
D03*
X251990D02*
D03*
D228*
X891750Y562000D02*
D03*
X-59450Y1171800D02*
D03*
X2385250Y-55050D02*
D03*
X2384950Y1172100D02*
D03*
X-59200Y-55350D02*
D03*
X1980750Y473750D02*
D03*
X332990Y176910D02*
D03*
Y272910D02*
D03*
D229*
X1006124Y317000D02*
D03*
X1085499D02*
D03*
X1244249D02*
D03*
X1172374D02*
D03*
X1125187D02*
D03*
X858937D02*
D03*
X774562D02*
D03*
X814249D02*
D03*
X695187D02*
D03*
X615812D02*
D03*
X536437D02*
D03*
X457062D02*
D03*
X496749D02*
D03*
X377687D02*
D03*
X417374D02*
D03*
X298312D02*
D03*
X337999D02*
D03*
X218937D02*
D03*
X258624D02*
D03*
X1092062Y967000D02*
D03*
X1012687D02*
D03*
X1052374D02*
D03*
X933312D02*
D03*
X972999D02*
D03*
X853937D02*
D03*
X893624D02*
D03*
X814249D02*
D03*
X695187D02*
D03*
X734874D02*
D03*
X615812D02*
D03*
X576124D02*
D03*
X457062D02*
D03*
X496749D02*
D03*
X377687D02*
D03*
X417374D02*
D03*
X298312D02*
D03*
X337999D02*
D03*
X258624D02*
D03*
X218937D02*
D03*
X179249D02*
D03*
X179249Y317000D02*
D03*
D230*
X1251749Y919812D02*
D03*
Y880125D02*
D03*
Y756062D02*
D03*
Y649500D02*
D03*
Y607313D02*
D03*
Y562625D02*
D03*
Y522938D02*
D03*
Y483250D02*
D03*
Y443563D02*
D03*
Y403875D02*
D03*
Y324500D02*
D03*
Y364188D02*
D03*
X171749D02*
D03*
Y403875D02*
D03*
Y443563D02*
D03*
Y522938D02*
D03*
Y562625D02*
D03*
Y602313D02*
D03*
X171749Y681688D02*
D03*
Y721375D02*
D03*
Y761063D02*
D03*
X171749Y840438D02*
D03*
Y919813D02*
D03*
Y880125D02*
D03*
X171749Y959500D02*
D03*
X171749Y324500D02*
D03*
Y642000D02*
D03*
D231*
X1251749Y798250D02*
D03*
D232*
X1249250Y971000D02*
D03*
D233*
X1256750Y958500D02*
D03*
D234*
X1232750Y966000D02*
D03*
D235*
X586500Y35000D02*
D03*
X616500D02*
D03*
X626500D02*
D03*
X606500D02*
D03*
X646500D02*
D03*
X596500D02*
D03*
X556500D02*
D03*
X546500D02*
D03*
X516500D02*
D03*
X496500D02*
D03*
X486500D02*
D03*
X526500D02*
D03*
X476500D02*
D03*
X506500D02*
D03*
X536500D02*
D03*
X466500D02*
D03*
X456500D02*
D03*
X786500D02*
D03*
X676500D02*
D03*
X666500D02*
D03*
X656500D02*
D03*
X696500D02*
D03*
X766500D02*
D03*
X746500D02*
D03*
X726500D02*
D03*
X706500D02*
D03*
X756500D02*
D03*
X686500D02*
D03*
X716500D02*
D03*
X736500D02*
D03*
D236*
X636500Y40000D02*
D03*
X776500D02*
D03*
D247*
X1382500Y123500D02*
D03*
X898748D02*
D03*
X838998D02*
D03*
X850998D02*
D03*
X874998D02*
D03*
X886998D02*
D03*
X862998D02*
D03*
X1055999D02*
D03*
X996249D02*
D03*
X1008249D02*
D03*
X1032249D02*
D03*
X1044249D02*
D03*
X1020249D02*
D03*
X1177499D02*
D03*
X1201499D02*
D03*
X1189499D02*
D03*
X1165499D02*
D03*
X1153499D02*
D03*
X1213250D02*
D03*
X1370500D02*
D03*
X1358500D02*
D03*
X1334500D02*
D03*
X1322500D02*
D03*
X1310750D02*
D03*
X1346500D02*
D03*
X-250Y237500D02*
D03*
Y225500D02*
D03*
Y213750D02*
D03*
Y249500D02*
D03*
X-250Y914500D02*
D03*
Y950250D02*
D03*
Y938500D02*
D03*
Y926500D02*
D03*
X0Y637375D02*
D03*
Y601625D02*
D03*
Y613375D02*
D03*
Y625375D02*
D03*
X2324750Y625375D02*
D03*
Y613375D02*
D03*
Y601625D02*
D03*
Y637375D02*
D03*
X1934254Y1111750D02*
D03*
X1898504D02*
D03*
X1910254D02*
D03*
X1922254D02*
D03*
X2325000Y926500D02*
D03*
Y938500D02*
D03*
Y950250D02*
D03*
Y914500D02*
D03*
X2325000Y324500D02*
D03*
Y288750D02*
D03*
Y300500D02*
D03*
Y312500D02*
D03*
X430504Y1111750D02*
D03*
X394754D02*
D03*
X406504D02*
D03*
X418504D02*
D03*
X1170504D02*
D03*
X1158504D02*
D03*
X1146754D02*
D03*
X1182504D02*
D03*
D248*
X947499Y119750D02*
D03*
X1104749D02*
D03*
X1262000D02*
D03*
D249*
X72500Y93500D02*
D03*
X79750Y839500D02*
D03*
X54250Y814000D02*
D03*
X28750Y839500D02*
D03*
X79750Y788500D02*
D03*
X28750D02*
D03*
X28750Y388500D02*
D03*
X79750D02*
D03*
X28750Y439500D02*
D03*
X54250Y414000D02*
D03*
X79750Y439500D02*
D03*
X28750Y588500D02*
D03*
X79750D02*
D03*
X28750Y639500D02*
D03*
X54250Y614000D02*
D03*
X79750Y639500D02*
D03*
X2276500Y872900D02*
D03*
X2137500Y1045500D02*
D03*
X2221500D02*
D03*
X75000Y947500D02*
D03*
D250*
X1078700Y1097750D02*
D03*
X1830450Y151000D02*
D03*
D251*
X2305000Y995280D02*
D03*
X437250Y166050D02*
D03*
X2305000Y915750D02*
D03*
X2283500Y365800D02*
D03*
D252*
X2084250Y946000D02*
D03*
X1955250Y946000D02*
D03*
X2084250Y1095000D02*
D03*
X1955250D02*
D03*
D253*
X476107Y1014464D02*
D03*
Y989036D02*
D03*
X450679Y1014464D02*
D03*
Y989036D02*
D03*
X425250Y1014464D02*
D03*
Y989036D02*
D03*
X399822Y1014464D02*
D03*
Y989036D02*
D03*
X374393Y1014464D02*
D03*
Y989036D02*
D03*
X348964Y1014464D02*
D03*
Y989036D02*
D03*
X848557Y989036D02*
D03*
X848557Y1014464D02*
D03*
X873985Y989036D02*
D03*
Y1014464D02*
D03*
X899414Y989036D02*
D03*
Y1014464D02*
D03*
X924842Y989036D02*
D03*
Y1014464D02*
D03*
X950271Y989036D02*
D03*
Y1014464D02*
D03*
X975699Y989036D02*
D03*
X975699Y1014464D02*
D03*
X194400Y1016150D02*
D03*
Y1092350D02*
D03*
X219800Y1016150D02*
D03*
Y1092350D02*
D03*
X245200Y1016150D02*
D03*
Y1092350D02*
D03*
X270600Y1016150D02*
D03*
Y1092350D02*
D03*
D254*
X400000Y870000D02*
D03*
X900000D02*
D03*
Y370000D02*
D03*
X400000D02*
D03*
X2116000Y369500D02*
D03*
X1616000D02*
D03*
Y869500D02*
D03*
X2116000D02*
D03*
D255*
X223990Y185410D02*
D03*
Y239410D02*
D03*
X123990Y296160D02*
D03*
X223990D02*
D03*
X323990D02*
D03*
X373990Y153660D02*
D03*
X273990D02*
D03*
X173990D02*
D03*
X73990D02*
D03*
X23990Y210410D02*
D03*
Y296160D02*
D03*
D256*
X1879900Y1004750D02*
D03*
Y979350D02*
D03*
X1854500Y1004750D02*
D03*
Y979350D02*
D03*
X1829100Y1004750D02*
D03*
Y979350D02*
D03*
X1708400Y1004750D02*
D03*
Y979350D02*
D03*
X1683000Y1004750D02*
D03*
Y979350D02*
D03*
X1657600Y1004750D02*
D03*
Y979350D02*
D03*
D257*
X2285000Y167500D02*
D03*
X2285000Y1071500D02*
D03*
X130250Y864750D02*
D03*
Y343500D02*
D03*
D258*
X2276500Y822100D02*
D03*
D259*
X2137500Y972500D02*
D03*
D260*
Y930500D02*
D03*
X2179500Y930500D02*
D03*
Y972500D02*
D03*
X2221500D02*
D03*
Y930500D02*
D03*
M02*
